<?xml version="1.0" encoding="UTF-8" standalone="no"?>
<!DOCTYPE svg PUBLIC "-//W3C//DTD SVG 1.1//EN"
 "http://www.w3.org/Graphics/SVG/1.1/DTD/svg11.dtd">
<!-- Generated by graphviz version 2.38.0 (20140413.2041)
 -->
<!-- Title: tracker::LAPTrack Pages: 1 -->
<svg width="97pt" height="82pt"
 viewBox="0.00 0.00 97.00 82.00" xmlns="http://www.w3.org/2000/svg" xmlns:xlink="http://www.w3.org/1999/xlink">
<g id="graph0" class="graph" transform="scale(1 1) rotate(0) translate(4 78)">
<title>tracker::LAPTrack</title>
<polygon fill="white" stroke="none" points="-4,4 -4,-78 93,-78 93,4 -4,4"/>
<!-- Node1 -->
<g id="node1" class="node"><title>Node1</title>
<polygon fill="#bfbfbf" stroke="black" points="-7.10543e-15,-0.5 -7.10543e-15,-18.5 89,-18.5 89,-0.5 -7.10543e-15,-0.5"/>
<text text-anchor="middle" x="44.5" y="-7.3" font-family="Helvetica,sans-Serif" font-size="9.00">tracker::LAPTrack</text>
</g>
<!-- Node2 -->
<g id="node2" class="node"><title>Node2</title>
<g id="a_node2"><a xlink:href="classtracker_1_1Tracker.html" target="_top" xlink:title="tracker::Tracker">
<polygon fill="white" stroke="black" points="4.5,-55.5 4.5,-73.5 84.5,-73.5 84.5,-55.5 4.5,-55.5"/>
<text text-anchor="middle" x="44.5" y="-62.3" font-family="Helvetica,sans-Serif" font-size="9.00">tracker::Tracker</text>
</a>
</g>
</g>
<!-- Node2&#45;&gt;Node1 -->
<g id="edge1" class="edge"><title>Node2&#45;&gt;Node1</title>
<path fill="none" stroke="midnightblue" d="M44.5,-45.1746C44.5,-36.0945 44.5,-25.5949 44.5,-18.5496"/>
<polygon fill="midnightblue" stroke="midnightblue" points="41.0001,-45.2187 44.5,-55.2188 48.0001,-45.2188 41.0001,-45.2187"/>
</g>
</g>
</svg>
