<?xml version="1.0" encoding="UTF-8" standalone="no"?>
<!DOCTYPE svg PUBLIC "-//W3C//DTD SVG 1.1//EN"
 "http://www.w3.org/Graphics/SVG/1.1/DTD/svg11.dtd">
<!-- Generated by graphviz version 2.38.0 (20140413.2041)
 -->
<!-- Title: tracker::LAP_JVSparse::computeCost Pages: 1 -->
<svg width="248pt" height="84pt"
 viewBox="0.00 0.00 248.00 84.00" xmlns="http://www.w3.org/2000/svg" xmlns:xlink="http://www.w3.org/1999/xlink">
<g id="graph0" class="graph" transform="scale(1 1) rotate(0) translate(4 80)">
<title>tracker::LAP_JVSparse::computeCost</title>
<polygon fill="white" stroke="none" points="-4,4 -4,-80 244,-80 244,4 -4,4"/>
<!-- Node1 -->
<g id="node1" class="node"><title>Node1</title>
<polygon fill="#bfbfbf" stroke="black" points="0,-23.5 0,-51.5 111,-51.5 111,-23.5 0,-23.5"/>
<text text-anchor="start" x="8" y="-40.3" font-family="Helvetica,sans-Serif" font-size="9.00">tracker::LAP_JVSparse</text>
<text text-anchor="middle" x="55.5" y="-30.3" font-family="Helvetica,sans-Serif" font-size="9.00">::computeCost</text>
</g>
<!-- Node2 -->
<g id="node2" class="node"><title>Node2</title>
<g id="a_node2"><a xlink:href="classtracker_1_1LAPTrack.html#a52533a484c3fca552698a94785f5054a" target="_top" xlink:title="tracker::LAPTrack::\ldebugCloseGaps">
<polygon fill="white" stroke="black" points="147,-47.5 147,-75.5 240,-75.5 240,-47.5 147,-47.5"/>
<text text-anchor="start" x="155" y="-64.3" font-family="Helvetica,sans-Serif" font-size="9.00">tracker::LAPTrack::</text>
<text text-anchor="middle" x="193.5" y="-54.3" font-family="Helvetica,sans-Serif" font-size="9.00">debugCloseGaps</text>
</a>
</g>
</g>
<!-- Node1&#45;&gt;Node2 -->
<g id="edge1" class="edge"><title>Node1&#45;&gt;Node2</title>
<path fill="none" stroke="midnightblue" d="M121.11,-48.9017C129.751,-50.4267 138.466,-51.9646 146.694,-53.4165"/>
<polygon fill="midnightblue" stroke="midnightblue" points="121.489,-45.4146 111.033,-47.1234 120.272,-52.3081 121.489,-45.4146"/>
</g>
<!-- Node3 -->
<g id="node3" class="node"><title>Node3</title>
<g id="a_node3"><a xlink:href="classtracker_1_1LAPTrack.html#a1f334e86d674d5fa4eb69b281e3db62c" target="_top" xlink:title="tracker::LAPTrack::\ldebugF2F">
<polygon fill="white" stroke="black" points="147,-0.5 147,-28.5 240,-28.5 240,-0.5 147,-0.5"/>
<text text-anchor="start" x="155" y="-17.3" font-family="Helvetica,sans-Serif" font-size="9.00">tracker::LAPTrack::</text>
<text text-anchor="middle" x="193.5" y="-7.3" font-family="Helvetica,sans-Serif" font-size="9.00">debugF2F</text>
</a>
</g>
</g>
<!-- Node1&#45;&gt;Node3 -->
<g id="edge2" class="edge"><title>Node1&#45;&gt;Node3</title>
<path fill="none" stroke="midnightblue" d="M121.11,-26.5733C129.751,-25.1119 138.466,-23.6381 146.694,-22.2467"/>
<polygon fill="midnightblue" stroke="midnightblue" points="120.309,-23.159 111.033,-28.2775 121.476,-30.061 120.309,-23.159"/>
</g>
</g>
</svg>
