<?xml version="1.0" encoding="UTF-8" standalone="no"?>
<!DOCTYPE svg PUBLIC "-//W3C//DTD SVG 1.1//EN"
 "http://www.w3.org/Graphics/SVG/1.1/DTD/svg11.dtd">
<!-- Generated by graphviz version 2.38.0 (20140413.2041)
 -->
<!-- Title: tracker::LAPTrack::computeGapCloseMatrix Pages: 1 -->
<svg width="384pt" height="84pt"
 viewBox="0.00 0.00 384.00 84.00" xmlns="http://www.w3.org/2000/svg" xmlns:xlink="http://www.w3.org/1999/xlink">
<g id="graph0" class="graph" transform="scale(1 1) rotate(0) translate(4 80)">
<title>tracker::LAPTrack::computeGapCloseMatrix</title>
<polygon fill="white" stroke="none" points="-4,4 -4,-80 380,-80 380,4 -4,4"/>
<!-- Node1 -->
<g id="node1" class="node"><title>Node1</title>
<polygon fill="#bfbfbf" stroke="black" points="0,-23.5 0,-51.5 118,-51.5 118,-23.5 0,-23.5"/>
<text text-anchor="start" x="8" y="-40.3" font-family="Helvetica,sans-Serif" font-size="9.00">tracker::LAPTrack::</text>
<text text-anchor="middle" x="59" y="-30.3" font-family="Helvetica,sans-Serif" font-size="9.00">computeGapCloseMatrix</text>
</g>
<!-- Node2 -->
<g id="node2" class="node"><title>Node2</title>
<g id="a_node2"><a xlink:href="classtracker_1_1LAPTrack.html#a7e1ce573ac1f20bbb1f7bb6a51876525" target="_top" xlink:title="tracker::LAPTrack::\lcloseGaps">
<polygon fill="white" stroke="black" points="154,-47.5 154,-75.5 247,-75.5 247,-47.5 154,-47.5"/>
<text text-anchor="start" x="162" y="-64.3" font-family="Helvetica,sans-Serif" font-size="9.00">tracker::LAPTrack::</text>
<text text-anchor="middle" x="200.5" y="-54.3" font-family="Helvetica,sans-Serif" font-size="9.00">closeGaps</text>
</a>
</g>
</g>
<!-- Node1&#45;&gt;Node2 -->
<g id="edge1" class="edge"><title>Node1&#45;&gt;Node2</title>
<path fill="none" stroke="midnightblue" d="M128.381,-49.2644C136.96,-50.7405 145.568,-52.2214 153.684,-53.6176"/>
<polygon fill="midnightblue" stroke="midnightblue" points="128.801,-45.7854 118.352,-47.5391 127.614,-52.684 128.801,-45.7854"/>
</g>
<!-- Node4 -->
<g id="node4" class="node"><title>Node4</title>
<g id="a_node4"><a xlink:href="classtracker_1_1LAPTrack.html#a52533a484c3fca552698a94785f5054a" target="_top" xlink:title="tracker::LAPTrack::\ldebugCloseGaps">
<polygon fill="white" stroke="black" points="154,-0.5 154,-28.5 247,-28.5 247,-0.5 154,-0.5"/>
<text text-anchor="start" x="162" y="-17.3" font-family="Helvetica,sans-Serif" font-size="9.00">tracker::LAPTrack::</text>
<text text-anchor="middle" x="200.5" y="-7.3" font-family="Helvetica,sans-Serif" font-size="9.00">debugCloseGaps</text>
</a>
</g>
</g>
<!-- Node1&#45;&gt;Node4 -->
<g id="edge3" class="edge"><title>Node1&#45;&gt;Node4</title>
<path fill="none" stroke="midnightblue" d="M128.381,-26.2258C136.96,-24.8112 145.568,-23.392 153.684,-22.054"/>
<polygon fill="midnightblue" stroke="midnightblue" points="127.65,-22.799 118.352,-27.8792 128.788,-29.7057 127.65,-22.799"/>
</g>
<!-- Node3 -->
<g id="node3" class="node"><title>Node3</title>
<g id="a_node3"><a xlink:href="classtracker_1_1LAPTrack.html#aac61350c9f3e2c12c9aef7892a718f38" target="_top" xlink:title="tracker::LAPTrack::\lgenerateTracks">
<polygon fill="white" stroke="black" points="283,-47.5 283,-75.5 376,-75.5 376,-47.5 283,-47.5"/>
<text text-anchor="start" x="291" y="-64.3" font-family="Helvetica,sans-Serif" font-size="9.00">tracker::LAPTrack::</text>
<text text-anchor="middle" x="329.5" y="-54.3" font-family="Helvetica,sans-Serif" font-size="9.00">generateTracks</text>
</a>
</g>
</g>
<!-- Node2&#45;&gt;Node3 -->
<g id="edge2" class="edge"><title>Node2&#45;&gt;Node3</title>
<path fill="none" stroke="midnightblue" d="M257.501,-61.5C265.93,-61.5 274.537,-61.5 282.717,-61.5"/>
<polygon fill="midnightblue" stroke="midnightblue" points="257.35,-58.0001 247.35,-61.5 257.35,-65.0001 257.35,-58.0001"/>
</g>
</g>
</svg>
