<?xml version="1.0" encoding="UTF-8" standalone="no"?>
<!DOCTYPE svg PUBLIC "-//W3C//DTD SVG 1.1//EN"
 "http://www.w3.org/Graphics/SVG/1.1/DTD/svg11.dtd">
<!-- Generated by graphviz version 2.38.0 (20140413.2041)
 -->
<!-- Title: tracker::LAPTrack::linkF2F Pages: 1 -->
<svg width="248pt" height="84pt"
 viewBox="0.00 0.00 248.00 84.00" xmlns="http://www.w3.org/2000/svg" xmlns:xlink="http://www.w3.org/1999/xlink">
<g id="graph0" class="graph" transform="scale(1 1) rotate(0) translate(4 80)">
<title>tracker::LAPTrack::linkF2F</title>
<polygon fill="white" stroke="none" points="-4,4 -4,-80 244,-80 244,4 -4,4"/>
<!-- Node1 -->
<g id="node1" class="node"><title>Node1</title>
<polygon fill="#bfbfbf" stroke="black" points="0,-23.5 0,-51.5 93,-51.5 93,-23.5 0,-23.5"/>
<text text-anchor="start" x="8" y="-40.3" font-family="Helvetica,sans-Serif" font-size="9.00">tracker::LAPTrack::</text>
<text text-anchor="middle" x="46.5" y="-30.3" font-family="Helvetica,sans-Serif" font-size="9.00">linkF2F</text>
</g>
<!-- Node2 -->
<g id="node2" class="node"><title>Node2</title>
<g id="a_node2"><a xlink:href="classtracker_1_1LAPTrack.html#a993c8f819a93d6d2ed442a1678c5ce81" target="_top" xlink:title="tracker::LAPTrack::\lcomputeF2FCostMat">
<polygon fill="white" stroke="black" points="134,-47.5 134,-75.5 235,-75.5 235,-47.5 134,-47.5"/>
<text text-anchor="start" x="142" y="-64.3" font-family="Helvetica,sans-Serif" font-size="9.00">tracker::LAPTrack::</text>
<text text-anchor="middle" x="184.5" y="-54.3" font-family="Helvetica,sans-Serif" font-size="9.00">computeF2FCostMat</text>
</a>
</g>
</g>
<!-- Node1&#45;&gt;Node2 -->
<g id="edge1" class="edge"><title>Node1&#45;&gt;Node2</title>
<path fill="none" stroke="midnightblue" d="M93.1644,-45.5584C103.003,-47.2947 113.544,-49.1548 123.826,-50.9694"/>
<polygon fill="midnightblue" stroke="midnightblue" points="123.531,-54.4713 133.988,-52.7625 124.748,-47.5778 123.531,-54.4713"/>
</g>
<!-- Node3 -->
<g id="node3" class="node"><title>Node3</title>
<g id="a_node3"><a xlink:href="classtracker_1_1LAP__JVSparse.html#aea34e1276a8b6d217bd08a8a3b1156a8" target="_top" xlink:title="tracker::LAP_JVSparse\l::solve">
<polygon fill="white" stroke="black" points="129,-0.5 129,-28.5 240,-28.5 240,-0.5 129,-0.5"/>
<text text-anchor="start" x="137" y="-17.3" font-family="Helvetica,sans-Serif" font-size="9.00">tracker::LAP_JVSparse</text>
<text text-anchor="middle" x="184.5" y="-7.3" font-family="Helvetica,sans-Serif" font-size="9.00">::solve</text>
</a>
</g>
</g>
<!-- Node1&#45;&gt;Node3 -->
<g id="edge2" class="edge"><title>Node1&#45;&gt;Node3</title>
<path fill="none" stroke="midnightblue" d="M93.1644,-29.7773C101.373,-28.3891 110.07,-26.9183 118.698,-25.4591"/>
<polygon fill="midnightblue" stroke="midnightblue" points="119.486,-28.8757 128.762,-23.7571 118.319,-21.9737 119.486,-28.8757"/>
</g>
</g>
</svg>
