<?xml version="1.0" encoding="UTF-8" standalone="no"?>
<!DOCTYPE svg PUBLIC "-//W3C//DTD SVG 1.1//EN"
 "http://www.w3.org/Graphics/SVG/1.1/DTD/svg11.dtd">
<!-- Generated by graphviz version 2.38.0 (20140413.2041)
 -->
<!-- Title: tracker::LAP_JVSparse::solve Pages: 1 -->
<svg width="377pt" height="178pt"
 viewBox="0.00 0.00 377.00 178.00" xmlns="http://www.w3.org/2000/svg" xmlns:xlink="http://www.w3.org/1999/xlink">
<g id="graph0" class="graph" transform="scale(1 1) rotate(0) translate(4 174)">
<title>tracker::LAP_JVSparse::solve</title>
<polygon fill="white" stroke="none" points="-4,4 -4,-174 373,-174 373,4 -4,4"/>
<!-- Node1 -->
<g id="node1" class="node"><title>Node1</title>
<polygon fill="#bfbfbf" stroke="black" points="0,-70.5 0,-98.5 111,-98.5 111,-70.5 0,-70.5"/>
<text text-anchor="start" x="8" y="-87.3" font-family="Helvetica,sans-Serif" font-size="9.00">tracker::LAP_JVSparse</text>
<text text-anchor="middle" x="55.5" y="-77.3" font-family="Helvetica,sans-Serif" font-size="9.00">::solve</text>
</g>
<!-- Node2 -->
<g id="node2" class="node"><title>Node2</title>
<g id="a_node2"><a xlink:href="classtracker_1_1LAPTrack.html#a7e1ce573ac1f20bbb1f7bb6a51876525" target="_top" xlink:title="tracker::LAPTrack::\lcloseGaps">
<polygon fill="white" stroke="black" points="147,-141.5 147,-169.5 240,-169.5 240,-141.5 147,-141.5"/>
<text text-anchor="start" x="155" y="-158.3" font-family="Helvetica,sans-Serif" font-size="9.00">tracker::LAPTrack::</text>
<text text-anchor="middle" x="193.5" y="-148.3" font-family="Helvetica,sans-Serif" font-size="9.00">closeGaps</text>
</a>
</g>
</g>
<!-- Node1&#45;&gt;Node2 -->
<g id="edge1" class="edge"><title>Node1&#45;&gt;Node2</title>
<path fill="none" stroke="midnightblue" d="M91.8337,-103.447C108.523,-112.343 128.744,-123.046 147,-132.5 152.659,-135.431 158.734,-138.532 164.543,-141.477"/>
<polygon fill="midnightblue" stroke="midnightblue" points="93.43,-100.331 82.96,-98.7095 90.1334,-106.506 93.43,-100.331"/>
</g>
<!-- Node4 -->
<g id="node4" class="node"><title>Node4</title>
<g id="a_node4"><a xlink:href="classtracker_1_1LAPTrack.html#a52533a484c3fca552698a94785f5054a" target="_top" xlink:title="tracker::LAPTrack::\ldebugCloseGaps">
<polygon fill="white" stroke="black" points="147,-94.5 147,-122.5 240,-122.5 240,-94.5 147,-94.5"/>
<text text-anchor="start" x="155" y="-111.3" font-family="Helvetica,sans-Serif" font-size="9.00">tracker::LAPTrack::</text>
<text text-anchor="middle" x="193.5" y="-101.3" font-family="Helvetica,sans-Serif" font-size="9.00">debugCloseGaps</text>
</a>
</g>
</g>
<!-- Node1&#45;&gt;Node4 -->
<g id="edge3" class="edge"><title>Node1&#45;&gt;Node4</title>
<path fill="none" stroke="midnightblue" d="M121.11,-95.9017C129.751,-97.4267 138.466,-98.9646 146.694,-100.417"/>
<polygon fill="midnightblue" stroke="midnightblue" points="121.489,-92.4146 111.033,-94.1234 120.272,-99.3081 121.489,-92.4146"/>
</g>
<!-- Node5 -->
<g id="node5" class="node"><title>Node5</title>
<g id="a_node5"><a xlink:href="classtracker_1_1LAPTrack.html#a1f334e86d674d5fa4eb69b281e3db62c" target="_top" xlink:title="tracker::LAPTrack::\ldebugF2F">
<polygon fill="white" stroke="black" points="147,-47.5 147,-75.5 240,-75.5 240,-47.5 147,-47.5"/>
<text text-anchor="start" x="155" y="-64.3" font-family="Helvetica,sans-Serif" font-size="9.00">tracker::LAPTrack::</text>
<text text-anchor="middle" x="193.5" y="-54.3" font-family="Helvetica,sans-Serif" font-size="9.00">debugF2F</text>
</a>
</g>
</g>
<!-- Node1&#45;&gt;Node5 -->
<g id="edge4" class="edge"><title>Node1&#45;&gt;Node5</title>
<path fill="none" stroke="midnightblue" d="M121.11,-73.5733C129.751,-72.1119 138.466,-70.6381 146.694,-69.2467"/>
<polygon fill="midnightblue" stroke="midnightblue" points="120.309,-70.159 111.033,-75.2775 121.476,-77.061 120.309,-70.159"/>
</g>
<!-- Node6 -->
<g id="node6" class="node"><title>Node6</title>
<g id="a_node6"><a xlink:href="classtracker_1_1LAPTrack.html#acb3db52d2371baf8f96c35cf9e3741bd" target="_top" xlink:title="tracker::LAPTrack::\llinkF2F">
<polygon fill="white" stroke="black" points="147,-0.5 147,-28.5 240,-28.5 240,-0.5 147,-0.5"/>
<text text-anchor="start" x="155" y="-17.3" font-family="Helvetica,sans-Serif" font-size="9.00">tracker::LAPTrack::</text>
<text text-anchor="middle" x="193.5" y="-7.3" font-family="Helvetica,sans-Serif" font-size="9.00">linkF2F</text>
</a>
</g>
</g>
<!-- Node1&#45;&gt;Node6 -->
<g id="edge5" class="edge"><title>Node1&#45;&gt;Node6</title>
<path fill="none" stroke="midnightblue" d="M93.0068,-65.7097C115.657,-54.0513 144.292,-39.3132 165.019,-28.6445"/>
<polygon fill="midnightblue" stroke="midnightblue" points="91.3112,-62.646 84.0216,-70.3345 94.5148,-68.8699 91.3112,-62.646"/>
</g>
<!-- Node3 -->
<g id="node3" class="node"><title>Node3</title>
<g id="a_node3"><a xlink:href="classtracker_1_1LAPTrack.html#aac61350c9f3e2c12c9aef7892a718f38" target="_top" xlink:title="tracker::LAPTrack::\lgenerateTracks">
<polygon fill="white" stroke="black" points="276,-70.5 276,-98.5 369,-98.5 369,-70.5 276,-70.5"/>
<text text-anchor="start" x="284" y="-87.3" font-family="Helvetica,sans-Serif" font-size="9.00">tracker::LAPTrack::</text>
<text text-anchor="middle" x="322.5" y="-77.3" font-family="Helvetica,sans-Serif" font-size="9.00">generateTracks</text>
</a>
</g>
</g>
<!-- Node2&#45;&gt;Node3 -->
<g id="edge2" class="edge"><title>Node2&#45;&gt;Node3</title>
<path fill="none" stroke="midnightblue" d="M232.138,-136.713C234.809,-135.306 237.451,-133.893 240,-132.5 260.029,-121.554 282.335,-108.344 298.541,-98.5548"/>
<polygon fill="midnightblue" stroke="midnightblue" points="230.313,-133.716 223.044,-141.424 233.533,-139.931 230.313,-133.716"/>
</g>
<!-- Node6&#45;&gt;Node3 -->
<g id="edge6" class="edge"><title>Node6&#45;&gt;Node3</title>
<path fill="none" stroke="midnightblue" d="M230.517,-33.3771C233.73,-35.0976 236.928,-36.8233 240,-38.5 259.253,-49.0083 280.865,-61.2259 296.993,-70.4277"/>
<polygon fill="midnightblue" stroke="midnightblue" points="231.987,-30.1942 221.514,-28.5873 228.699,-36.3741 231.987,-30.1942"/>
</g>
</g>
</svg>
