<?xml version="1.0" encoding="UTF-8" standalone="no"?>
<!DOCTYPE svg PUBLIC "-//W3C//DTD SVG 1.1//EN"
 "http://www.w3.org/Graphics/SVG/1.1/DTD/svg11.dtd">
<!-- Generated by graphviz version 2.38.0 (20140413.2041)
 -->
<!-- Title: tracker::LAPTrack::debugCloseGaps Pages: 1 -->
<svg width="255pt" height="131pt"
 viewBox="0.00 0.00 255.00 131.00" xmlns="http://www.w3.org/2000/svg" xmlns:xlink="http://www.w3.org/1999/xlink">
<g id="graph0" class="graph" transform="scale(1 1) rotate(0) translate(4 127)">
<title>tracker::LAPTrack::debugCloseGaps</title>
<polygon fill="white" stroke="none" points="-4,4 -4,-127 251,-127 251,4 -4,4"/>
<!-- Node1 -->
<g id="node1" class="node"><title>Node1</title>
<polygon fill="#bfbfbf" stroke="black" points="0,-47.5 0,-75.5 93,-75.5 93,-47.5 0,-47.5"/>
<text text-anchor="start" x="8" y="-64.3" font-family="Helvetica,sans-Serif" font-size="9.00">tracker::LAPTrack::</text>
<text text-anchor="middle" x="46.5" y="-54.3" font-family="Helvetica,sans-Serif" font-size="9.00">debugCloseGaps</text>
</g>
<!-- Node2 -->
<g id="node2" class="node"><title>Node2</title>
<g id="a_node2"><a xlink:href="classtracker_1_1LAP__JVSparse.html#a4d731a155829c5f7c587afa0e518fe62" target="_top" xlink:title="tracker::LAP_JVSparse\l::computeCost">
<polygon fill="white" stroke="black" points="132.5,-94.5 132.5,-122.5 243.5,-122.5 243.5,-94.5 132.5,-94.5"/>
<text text-anchor="start" x="140.5" y="-111.3" font-family="Helvetica,sans-Serif" font-size="9.00">tracker::LAP_JVSparse</text>
<text text-anchor="middle" x="188" y="-101.3" font-family="Helvetica,sans-Serif" font-size="9.00">::computeCost</text>
</a>
</g>
</g>
<!-- Node1&#45;&gt;Node2 -->
<g id="edge1" class="edge"><title>Node1&#45;&gt;Node2</title>
<path fill="none" stroke="midnightblue" d="M89.3546,-75.6015C103.838,-80.4813 120.243,-86.0084 135.415,-91.1202"/>
<polygon fill="midnightblue" stroke="midnightblue" points="134.581,-94.5323 145.175,-94.4084 136.816,-87.8987 134.581,-94.5323"/>
</g>
<!-- Node3 -->
<g id="node3" class="node"><title>Node3</title>
<g id="a_node3"><a xlink:href="classtracker_1_1LAPTrack.html#a3a195a7fa82a0019115bc3fd53a38e5f" target="_top" xlink:title="tracker::LAPTrack::\lcomputeGapCloseMatrix">
<polygon fill="white" stroke="black" points="129,-47.5 129,-75.5 247,-75.5 247,-47.5 129,-47.5"/>
<text text-anchor="start" x="137" y="-64.3" font-family="Helvetica,sans-Serif" font-size="9.00">tracker::LAPTrack::</text>
<text text-anchor="middle" x="188" y="-54.3" font-family="Helvetica,sans-Serif" font-size="9.00">computeGapCloseMatrix</text>
</a>
</g>
</g>
<!-- Node1&#45;&gt;Node3 -->
<g id="edge2" class="edge"><title>Node1&#45;&gt;Node3</title>
<path fill="none" stroke="midnightblue" d="M93.1775,-61.5C101.288,-61.5 109.892,-61.5 118.473,-61.5"/>
<polygon fill="midnightblue" stroke="midnightblue" points="118.503,-65.0001 128.503,-61.5 118.503,-58.0001 118.503,-65.0001"/>
</g>
<!-- Node4 -->
<g id="node4" class="node"><title>Node4</title>
<g id="a_node4"><a xlink:href="classtracker_1_1LAP__JVSparse.html#aea34e1276a8b6d217bd08a8a3b1156a8" target="_top" xlink:title="tracker::LAP_JVSparse\l::solve">
<polygon fill="white" stroke="black" points="132.5,-0.5 132.5,-28.5 243.5,-28.5 243.5,-0.5 132.5,-0.5"/>
<text text-anchor="start" x="140.5" y="-17.3" font-family="Helvetica,sans-Serif" font-size="9.00">tracker::LAP_JVSparse</text>
<text text-anchor="middle" x="188" y="-7.3" font-family="Helvetica,sans-Serif" font-size="9.00">::solve</text>
</a>
</g>
</g>
<!-- Node1&#45;&gt;Node4 -->
<g id="edge3" class="edge"><title>Node1&#45;&gt;Node4</title>
<path fill="none" stroke="midnightblue" d="M89.3546,-47.3985C103.838,-42.5187 120.243,-36.9916 135.415,-31.8798"/>
<polygon fill="midnightblue" stroke="midnightblue" points="136.816,-35.1013 145.175,-28.5916 134.581,-28.4677 136.816,-35.1013"/>
</g>
</g>
</svg>
