<?xml version="1.0" encoding="UTF-8" standalone="no"?>
<!DOCTYPE svg PUBLIC "-//W3C//DTD SVG 1.1//EN"
 "http://www.w3.org/Graphics/SVG/1.1/DTD/svg11.dtd">
<!-- Generated by graphviz version 2.38.0 (20140413.2041)
 -->
<!-- Title: tracker::LAPTrack::debugF2F Pages: 1 -->
<svg width="248pt" height="131pt"
 viewBox="0.00 0.00 248.00 131.00" xmlns="http://www.w3.org/2000/svg" xmlns:xlink="http://www.w3.org/1999/xlink">
<g id="graph0" class="graph" transform="scale(1 1) rotate(0) translate(4 127)">
<title>tracker::LAPTrack::debugF2F</title>
<polygon fill="white" stroke="none" points="-4,4 -4,-127 244,-127 244,4 -4,4"/>
<!-- Node1 -->
<g id="node1" class="node"><title>Node1</title>
<polygon fill="#bfbfbf" stroke="black" points="0,-47.5 0,-75.5 93,-75.5 93,-47.5 0,-47.5"/>
<text text-anchor="start" x="8" y="-64.3" font-family="Helvetica,sans-Serif" font-size="9.00">tracker::LAPTrack::</text>
<text text-anchor="middle" x="46.5" y="-54.3" font-family="Helvetica,sans-Serif" font-size="9.00">debugF2F</text>
</g>
<!-- Node2 -->
<g id="node2" class="node"><title>Node2</title>
<g id="a_node2"><a xlink:href="classtracker_1_1LAP__JVSparse.html#a4d731a155829c5f7c587afa0e518fe62" target="_top" xlink:title="tracker::LAP_JVSparse\l::computeCost">
<polygon fill="white" stroke="black" points="129,-94.5 129,-122.5 240,-122.5 240,-94.5 129,-94.5"/>
<text text-anchor="start" x="137" y="-111.3" font-family="Helvetica,sans-Serif" font-size="9.00">tracker::LAP_JVSparse</text>
<text text-anchor="middle" x="184.5" y="-101.3" font-family="Helvetica,sans-Serif" font-size="9.00">::computeCost</text>
</a>
</g>
</g>
<!-- Node1&#45;&gt;Node2 -->
<g id="edge1" class="edge"><title>Node1&#45;&gt;Node2</title>
<path fill="none" stroke="midnightblue" d="M88.3045,-75.6015C102.425,-80.4813 118.418,-86.0084 133.209,-91.1202"/>
<polygon fill="midnightblue" stroke="midnightblue" points="132.13,-94.45 142.724,-94.4084 134.416,-87.834 132.13,-94.45"/>
</g>
<!-- Node3 -->
<g id="node3" class="node"><title>Node3</title>
<g id="a_node3"><a xlink:href="classtracker_1_1LAPTrack.html#a993c8f819a93d6d2ed442a1678c5ce81" target="_top" xlink:title="tracker::LAPTrack::\lcomputeF2FCostMat">
<polygon fill="white" stroke="black" points="134,-47.5 134,-75.5 235,-75.5 235,-47.5 134,-47.5"/>
<text text-anchor="start" x="142" y="-64.3" font-family="Helvetica,sans-Serif" font-size="9.00">tracker::LAPTrack::</text>
<text text-anchor="middle" x="184.5" y="-54.3" font-family="Helvetica,sans-Serif" font-size="9.00">computeF2FCostMat</text>
</a>
</g>
</g>
<!-- Node1&#45;&gt;Node3 -->
<g id="edge2" class="edge"><title>Node1&#45;&gt;Node3</title>
<path fill="none" stroke="midnightblue" d="M93.1644,-61.5C103.003,-61.5 113.544,-61.5 123.826,-61.5"/>
<polygon fill="midnightblue" stroke="midnightblue" points="123.988,-65.0001 133.988,-61.5 123.988,-58.0001 123.988,-65.0001"/>
</g>
<!-- Node4 -->
<g id="node4" class="node"><title>Node4</title>
<g id="a_node4"><a xlink:href="classtracker_1_1LAP__JVSparse.html#aea34e1276a8b6d217bd08a8a3b1156a8" target="_top" xlink:title="tracker::LAP_JVSparse\l::solve">
<polygon fill="white" stroke="black" points="129,-0.5 129,-28.5 240,-28.5 240,-0.5 129,-0.5"/>
<text text-anchor="start" x="137" y="-17.3" font-family="Helvetica,sans-Serif" font-size="9.00">tracker::LAP_JVSparse</text>
<text text-anchor="middle" x="184.5" y="-7.3" font-family="Helvetica,sans-Serif" font-size="9.00">::solve</text>
</a>
</g>
</g>
<!-- Node1&#45;&gt;Node4 -->
<g id="edge3" class="edge"><title>Node1&#45;&gt;Node4</title>
<path fill="none" stroke="midnightblue" d="M88.3045,-47.3985C102.425,-42.5187 118.418,-36.9916 133.209,-31.8798"/>
<polygon fill="midnightblue" stroke="midnightblue" points="134.416,-35.166 142.724,-28.5916 132.13,-28.55 134.416,-35.166"/>
</g>
</g>
</svg>
