<?xml version="1.0" encoding="UTF-8" standalone="no"?>
<!DOCTYPE svg PUBLIC "-//W3C//DTD SVG 1.1//EN"
 "http://www.w3.org/Graphics/SVG/1.1/DTD/svg11.dtd">
<!-- Generated by graphviz version 2.38.0 (20140413.2041)
 -->
<!-- Title: tracker::LAPTrack::closeGaps Pages: 1 -->
<svg width="255pt" height="84pt"
 viewBox="0.00 0.00 255.00 84.00" xmlns="http://www.w3.org/2000/svg" xmlns:xlink="http://www.w3.org/1999/xlink">
<g id="graph0" class="graph" transform="scale(1 1) rotate(0) translate(4 80)">
<title>tracker::LAPTrack::closeGaps</title>
<polygon fill="white" stroke="none" points="-4,4 -4,-80 251,-80 251,4 -4,4"/>
<!-- Node1 -->
<g id="node1" class="node"><title>Node1</title>
<polygon fill="#bfbfbf" stroke="black" points="0,-23.5 0,-51.5 93,-51.5 93,-23.5 0,-23.5"/>
<text text-anchor="start" x="8" y="-40.3" font-family="Helvetica,sans-Serif" font-size="9.00">tracker::LAPTrack::</text>
<text text-anchor="middle" x="46.5" y="-30.3" font-family="Helvetica,sans-Serif" font-size="9.00">closeGaps</text>
</g>
<!-- Node2 -->
<g id="node2" class="node"><title>Node2</title>
<g id="a_node2"><a xlink:href="classtracker_1_1LAPTrack.html#a3a195a7fa82a0019115bc3fd53a38e5f" target="_top" xlink:title="tracker::LAPTrack::\lcomputeGapCloseMatrix">
<polygon fill="white" stroke="black" points="129,-47.5 129,-75.5 247,-75.5 247,-47.5 129,-47.5"/>
<text text-anchor="start" x="137" y="-64.3" font-family="Helvetica,sans-Serif" font-size="9.00">tracker::LAPTrack::</text>
<text text-anchor="middle" x="188" y="-54.3" font-family="Helvetica,sans-Serif" font-size="9.00">computeGapCloseMatrix</text>
</a>
</g>
</g>
<!-- Node1&#45;&gt;Node2 -->
<g id="edge1" class="edge"><title>Node1&#45;&gt;Node2</title>
<path fill="none" stroke="midnightblue" d="M93.1775,-45.3585C101.288,-46.7538 109.892,-48.2342 118.473,-49.7103"/>
<polygon fill="midnightblue" stroke="midnightblue" points="118.054,-53.1897 128.503,-51.4359 119.241,-46.291 118.054,-53.1897"/>
</g>
<!-- Node3 -->
<g id="node3" class="node"><title>Node3</title>
<g id="a_node3"><a xlink:href="classtracker_1_1LAP__JVSparse.html#aea34e1276a8b6d217bd08a8a3b1156a8" target="_top" xlink:title="tracker::LAP_JVSparse\l::solve">
<polygon fill="white" stroke="black" points="132.5,-0.5 132.5,-28.5 243.5,-28.5 243.5,-0.5 132.5,-0.5"/>
<text text-anchor="start" x="140.5" y="-17.3" font-family="Helvetica,sans-Serif" font-size="9.00">tracker::LAP_JVSparse</text>
<text text-anchor="middle" x="188" y="-7.3" font-family="Helvetica,sans-Serif" font-size="9.00">::solve</text>
</a>
</g>
</g>
<!-- Node1&#45;&gt;Node3 -->
<g id="edge2" class="edge"><title>Node1&#45;&gt;Node3</title>
<path fill="none" stroke="midnightblue" d="M93.1775,-29.9689C102.496,-28.4326 112.467,-26.7886 122.304,-25.1668"/>
<polygon fill="midnightblue" stroke="midnightblue" points="123.175,-28.5704 132.473,-23.4902 122.036,-21.6637 123.175,-28.5704"/>
</g>
</g>
</svg>
