<?xml version="1.0" encoding="UTF-8" standalone="no"?>
<!DOCTYPE svg PUBLIC "-//W3C//DTD SVG 1.1//EN"
 "http://www.w3.org/Graphics/SVG/1.1/DTD/svg11.dtd">
<!-- Generated by graphviz version 2.38.0 (20140413.2041)
 -->
<!-- Title: tracker::Tracker Pages: 1 -->
<svg width="170pt" height="222pt"
 viewBox="0.00 0.00 169.50 222.00" xmlns="http://www.w3.org/2000/svg" xmlns:xlink="http://www.w3.org/1999/xlink">
<g id="graph0" class="graph" transform="scale(1 1) rotate(0) translate(4 218)">
<title>tracker::Tracker</title>
<polygon fill="white" stroke="none" points="-4,4 -4,-218 165.5,-218 165.5,4 -4,4"/>
<!-- Node1 -->
<g id="node1" class="node"><title>Node1</title>
<polygon fill="#bfbfbf" stroke="black" points="30.5,-0.5 30.5,-18.5 110.5,-18.5 110.5,-0.5 30.5,-0.5"/>
<text text-anchor="middle" x="70.5" y="-7.3" font-family="Helvetica,sans-Serif" font-size="9.00">tracker::Tracker</text>
</g>
<!-- Node2 -->
<g id="node2" class="node"><title>Node2</title>
<polygon fill="white" stroke="#bfbfbf" points="20,-65.5 20,-83.5 121,-83.5 121,-65.5 20,-65.5"/>
<text text-anchor="middle" x="70.5" y="-72.3" font-family="Helvetica,sans-Serif" font-size="9.00">std::vector&lt; TrackT &gt;</text>
</g>
<!-- Node2&#45;&gt;Node1 -->
<g id="edge1" class="edge"><title>Node2&#45;&gt;Node1</title>
<path fill="none" stroke="#9a32cd" stroke-dasharray="5,2" d="M70.5,-54.9075C70.5,-42.8146 70.5,-27.6529 70.5,-18.539"/>
<polygon fill="#9a32cd" stroke="#9a32cd" points="67.0001,-55.2638 70.5,-65.2639 74.0001,-55.2639 67.0001,-55.2638"/>
<text text-anchor="middle" x="84" y="-39.8" font-family="Helvetica,sans-Serif" font-size="9.00"> tracks</text>
</g>
<!-- Node3 -->
<g id="node3" class="node"><title>Node3</title>
<g id="a_node3"><a xlink:title="STL class. ">
<polygon fill="white" stroke="#bfbfbf" points="0,-130.5 0,-148.5 65,-148.5 65,-130.5 0,-130.5"/>
<text text-anchor="middle" x="32.5" y="-137.3" font-family="Helvetica,sans-Serif" font-size="9.00">std::list&lt; T &gt;</text>
</a>
</g>
</g>
<!-- Node3&#45;&gt;Node2 -->
<g id="edge2" class="edge"><title>Node3&#45;&gt;Node2</title>
<path fill="none" stroke="#9a32cd" stroke-dasharray="5,2" d="M42.048,-121.512C45.5814,-115.33 49.6619,-108.313 53.5,-102 57.2481,-95.8348 61.6507,-88.9819 65.0364,-83.7897"/>
<polygon fill="#9a32cd" stroke="#9a32cd" points="38.9441,-119.89 37.0594,-130.316 45.0344,-123.341 38.9441,-119.89"/>
<text text-anchor="middle" x="73.5" y="-104.8" font-family="Helvetica,sans-Serif" font-size="9.00"> elements</text>
</g>
<!-- Node4 -->
<g id="node4" class="node"><title>Node4</title>
<polygon fill="white" stroke="#bfbfbf" points="66,-195.5 66,-213.5 95,-213.5 95,-195.5 66,-195.5"/>
<text text-anchor="middle" x="80.5" y="-202.3" font-family="Helvetica,sans-Serif" font-size="9.00">T</text>
</g>
<!-- Node4&#45;&gt;Node3 -->
<g id="edge3" class="edge"><title>Node4&#45;&gt;Node3</title>
<path fill="none" stroke="#9a32cd" stroke-dasharray="5,2" d="M64.6434,-187.688C61.4875,-184.271 58.2895,-180.6 55.5,-177 48.3428,-167.764 41.3676,-156.231 37.0104,-148.629"/>
<polygon fill="#9a32cd" stroke="#9a32cd" points="62.2661,-190.265 71.7193,-195.049 67.3127,-185.414 62.2661,-190.265"/>
<text text-anchor="middle" x="75.5" y="-169.8" font-family="Helvetica,sans-Serif" font-size="9.00"> elements</text>
</g>
<!-- Node5 -->
<g id="node5" class="node"><title>Node5</title>
<g id="a_node5"><a xlink:title="STL class. ">
<polygon fill="white" stroke="#bfbfbf" points="83.5,-130.5 83.5,-148.5 161.5,-148.5 161.5,-130.5 83.5,-130.5"/>
<text text-anchor="middle" x="122.5" y="-137.3" font-family="Helvetica,sans-Serif" font-size="9.00">std::vector&lt; T &gt;</text>
</a>
</g>
</g>
<!-- Node4&#45;&gt;Node5 -->
<g id="edge5" class="edge"><title>Node4&#45;&gt;Node5</title>
<path fill="none" stroke="#9a32cd" stroke-dasharray="5,2" d="M91.6655,-186.752C99.9042,-174.394 110.752,-158.123 117.141,-148.539"/>
<polygon fill="#9a32cd" stroke="#9a32cd" points="88.6256,-185.002 85.9908,-195.264 94.45,-188.885 88.6256,-185.002"/>
<text text-anchor="middle" x="124.5" y="-169.8" font-family="Helvetica,sans-Serif" font-size="9.00"> elements</text>
</g>
<!-- Node5&#45;&gt;Node2 -->
<g id="edge4" class="edge"><title>Node5&#45;&gt;Node2</title>
<path fill="none" stroke="orange" stroke-dasharray="5,2" d="M109.926,-122.366C104.882,-115.974 98.9749,-108.592 93.5,-102 88.3622,-95.8141 82.4078,-88.9619 77.8449,-83.7751"/>
<polygon fill="orange" stroke="orange" points="107.224,-124.592 116.15,-130.3 112.732,-120.272 107.224,-124.592"/>
<text text-anchor="middle" x="125.5" y="-104.8" font-family="Helvetica,sans-Serif" font-size="9.00"> &lt; TrackT &gt;</text>
</g>
</g>
</svg>
