<?xml version="1.0" encoding="UTF-8" standalone="no"?>
<!DOCTYPE svg PUBLIC "-//W3C//DTD SVG 1.1//EN"
 "http://www.w3.org/Graphics/SVG/1.1/DTD/svg11.dtd">
<!-- Generated by graphviz version 2.38.0 (20140413.2041)
 -->
<!-- Title: tracker::LAPTrack::linkF2F Pages: 1 -->
<svg width="230pt" height="37pt"
 viewBox="0.00 0.00 230.00 37.00" xmlns="http://www.w3.org/2000/svg" xmlns:xlink="http://www.w3.org/1999/xlink">
<g id="graph0" class="graph" transform="scale(1 1) rotate(0) translate(4 33)">
<title>tracker::LAPTrack::linkF2F</title>
<polygon fill="white" stroke="none" points="-4,4 -4,-33 226,-33 226,4 -4,4"/>
<!-- Node1 -->
<g id="node1" class="node"><title>Node1</title>
<polygon fill="#bfbfbf" stroke="black" points="0,-0.5 0,-28.5 93,-28.5 93,-0.5 0,-0.5"/>
<text text-anchor="start" x="8" y="-17.3" font-family="Helvetica,sans-Serif" font-size="9.00">tracker::LAPTrack::</text>
<text text-anchor="middle" x="46.5" y="-7.3" font-family="Helvetica,sans-Serif" font-size="9.00">linkF2F</text>
</g>
<!-- Node2 -->
<g id="node2" class="node"><title>Node2</title>
<g id="a_node2"><a xlink:href="classtracker_1_1LAPTrack.html#aac61350c9f3e2c12c9aef7892a718f38" target="_top" xlink:title="tracker::LAPTrack::\lgenerateTracks">
<polygon fill="white" stroke="black" points="129,-0.5 129,-28.5 222,-28.5 222,-0.5 129,-0.5"/>
<text text-anchor="start" x="137" y="-17.3" font-family="Helvetica,sans-Serif" font-size="9.00">tracker::LAPTrack::</text>
<text text-anchor="middle" x="175.5" y="-7.3" font-family="Helvetica,sans-Serif" font-size="9.00">generateTracks</text>
</a>
</g>
</g>
<!-- Node1&#45;&gt;Node2 -->
<g id="edge1" class="edge"><title>Node1&#45;&gt;Node2</title>
<path fill="none" stroke="midnightblue" d="M103.501,-14.5C111.93,-14.5 120.537,-14.5 128.717,-14.5"/>
<polygon fill="midnightblue" stroke="midnightblue" points="103.35,-11.0001 93.3499,-14.5 103.35,-18.0001 103.35,-11.0001"/>
</g>
</g>
</svg>
