<?xml version="1.0" encoding="UTF-8" standalone="no"?>
<!DOCTYPE svg PUBLIC "-//W3C//DTD SVG 1.1//EN"
 "http://www.w3.org/Graphics/SVG/1.1/DTD/svg11.dtd">
<!-- Generated by graphviz version 2.38.0 (20140413.2041)
 -->
<!-- Title: tracker::LAPTrack Pages: 1 -->
<svg width="170pt" height="278pt"
 viewBox="0.00 0.00 169.50 278.00" xmlns="http://www.w3.org/2000/svg" xmlns:xlink="http://www.w3.org/1999/xlink">
<g id="graph0" class="graph" transform="scale(1 1) rotate(0) translate(4 274)">
<title>tracker::LAPTrack</title>
<polygon fill="white" stroke="none" points="-4,4 -4,-274 165.5,-274 165.5,4 -4,4"/>
<!-- Node1 -->
<g id="node1" class="node"><title>Node1</title>
<polygon fill="#bfbfbf" stroke="black" points="26,-0.5 26,-18.5 115,-18.5 115,-0.5 26,-0.5"/>
<text text-anchor="middle" x="70.5" y="-7.3" font-family="Helvetica,sans-Serif" font-size="9.00">tracker::LAPTrack</text>
</g>
<!-- Node2 -->
<g id="node2" class="node"><title>Node2</title>
<g id="a_node2"><a xlink:href="classtracker_1_1Tracker.html" target="_top" xlink:title="tracker::Tracker">
<polygon fill="white" stroke="black" points="30.5,-56.5 30.5,-74.5 110.5,-74.5 110.5,-56.5 30.5,-56.5"/>
<text text-anchor="middle" x="70.5" y="-63.3" font-family="Helvetica,sans-Serif" font-size="9.00">tracker::Tracker</text>
</a>
</g>
</g>
<!-- Node2&#45;&gt;Node1 -->
<g id="edge1" class="edge"><title>Node2&#45;&gt;Node1</title>
<path fill="none" stroke="midnightblue" d="M70.5,-45.8288C70.5,-36.5774 70.5,-25.8798 70.5,-18.7014"/>
<polygon fill="midnightblue" stroke="midnightblue" points="67.0001,-46.0625 70.5,-56.0625 74.0001,-46.0625 67.0001,-46.0625"/>
</g>
<!-- Node3 -->
<g id="node3" class="node"><title>Node3</title>
<polygon fill="white" stroke="#bfbfbf" points="20,-121.5 20,-139.5 121,-139.5 121,-121.5 20,-121.5"/>
<text text-anchor="middle" x="70.5" y="-128.3" font-family="Helvetica,sans-Serif" font-size="9.00">std::vector&lt; TrackT &gt;</text>
</g>
<!-- Node3&#45;&gt;Node2 -->
<g id="edge2" class="edge"><title>Node3&#45;&gt;Node2</title>
<path fill="none" stroke="#9a32cd" stroke-dasharray="5,2" d="M70.5,-110.907C70.5,-98.8146 70.5,-83.6529 70.5,-74.539"/>
<polygon fill="#9a32cd" stroke="#9a32cd" points="67.0001,-111.264 70.5,-121.264 74.0001,-111.264 67.0001,-111.264"/>
<text text-anchor="middle" x="84" y="-95.8" font-family="Helvetica,sans-Serif" font-size="9.00"> tracks</text>
</g>
<!-- Node4 -->
<g id="node4" class="node"><title>Node4</title>
<g id="a_node4"><a xlink:title="STL class. ">
<polygon fill="white" stroke="#bfbfbf" points="0,-186.5 0,-204.5 65,-204.5 65,-186.5 0,-186.5"/>
<text text-anchor="middle" x="32.5" y="-193.3" font-family="Helvetica,sans-Serif" font-size="9.00">std::list&lt; T &gt;</text>
</a>
</g>
</g>
<!-- Node4&#45;&gt;Node3 -->
<g id="edge3" class="edge"><title>Node4&#45;&gt;Node3</title>
<path fill="none" stroke="#9a32cd" stroke-dasharray="5,2" d="M42.048,-177.512C45.5814,-171.33 49.6619,-164.313 53.5,-158 57.2481,-151.835 61.6507,-144.982 65.0364,-139.79"/>
<polygon fill="#9a32cd" stroke="#9a32cd" points="38.9441,-175.89 37.0594,-186.316 45.0344,-179.341 38.9441,-175.89"/>
<text text-anchor="middle" x="73.5" y="-160.8" font-family="Helvetica,sans-Serif" font-size="9.00"> elements</text>
</g>
<!-- Node5 -->
<g id="node5" class="node"><title>Node5</title>
<polygon fill="white" stroke="#bfbfbf" points="66,-251.5 66,-269.5 95,-269.5 95,-251.5 66,-251.5"/>
<text text-anchor="middle" x="80.5" y="-258.3" font-family="Helvetica,sans-Serif" font-size="9.00">T</text>
</g>
<!-- Node5&#45;&gt;Node4 -->
<g id="edge4" class="edge"><title>Node5&#45;&gt;Node4</title>
<path fill="none" stroke="#9a32cd" stroke-dasharray="5,2" d="M64.6434,-243.688C61.4875,-240.271 58.2895,-236.6 55.5,-233 48.3428,-223.764 41.3676,-212.231 37.0104,-204.629"/>
<polygon fill="#9a32cd" stroke="#9a32cd" points="62.2661,-246.265 71.7193,-251.049 67.3127,-241.414 62.2661,-246.265"/>
<text text-anchor="middle" x="75.5" y="-225.8" font-family="Helvetica,sans-Serif" font-size="9.00"> elements</text>
</g>
<!-- Node6 -->
<g id="node6" class="node"><title>Node6</title>
<g id="a_node6"><a xlink:title="STL class. ">
<polygon fill="white" stroke="#bfbfbf" points="83.5,-186.5 83.5,-204.5 161.5,-204.5 161.5,-186.5 83.5,-186.5"/>
<text text-anchor="middle" x="122.5" y="-193.3" font-family="Helvetica,sans-Serif" font-size="9.00">std::vector&lt; T &gt;</text>
</a>
</g>
</g>
<!-- Node5&#45;&gt;Node6 -->
<g id="edge6" class="edge"><title>Node5&#45;&gt;Node6</title>
<path fill="none" stroke="#9a32cd" stroke-dasharray="5,2" d="M91.6655,-242.752C99.9042,-230.394 110.752,-214.123 117.141,-204.539"/>
<polygon fill="#9a32cd" stroke="#9a32cd" points="88.6256,-241.002 85.9908,-251.264 94.45,-244.885 88.6256,-241.002"/>
<text text-anchor="middle" x="124.5" y="-225.8" font-family="Helvetica,sans-Serif" font-size="9.00"> elements</text>
</g>
<!-- Node6&#45;&gt;Node3 -->
<g id="edge5" class="edge"><title>Node6&#45;&gt;Node3</title>
<path fill="none" stroke="orange" stroke-dasharray="5,2" d="M109.926,-178.366C104.882,-171.974 98.9749,-164.592 93.5,-158 88.3622,-151.814 82.4078,-144.962 77.8449,-139.775"/>
<polygon fill="orange" stroke="orange" points="107.224,-180.592 116.15,-186.3 112.732,-176.272 107.224,-180.592"/>
<text text-anchor="middle" x="125.5" y="-160.8" font-family="Helvetica,sans-Serif" font-size="9.00"> &lt; TrackT &gt;</text>
</g>
</g>
</svg>
