<?xml version="1.0" encoding="UTF-8" standalone="no"?>
<!DOCTYPE svg PUBLIC "-//W3C//DTD SVG 1.1//EN"
 "http://www.w3.org/Graphics/SVG/1.1/DTD/svg11.dtd">
<!-- Generated by graphviz version 2.38.0 (20140413.2041)
 -->
<!-- Title: tracker::LAPTrack::initializeTracks Pages: 1 -->
<svg width="255pt" height="37pt"
 viewBox="0.00 0.00 255.00 37.00" xmlns="http://www.w3.org/2000/svg" xmlns:xlink="http://www.w3.org/1999/xlink">
<g id="graph0" class="graph" transform="scale(1 1) rotate(0) translate(4 33)">
<title>tracker::LAPTrack::initializeTracks</title>
<polygon fill="white" stroke="none" points="-4,4 -4,-33 251,-33 251,4 -4,4"/>
<!-- Node1 -->
<g id="node1" class="node"><title>Node1</title>
<polygon fill="#bfbfbf" stroke="black" points="0,-0.5 0,-28.5 93,-28.5 93,-0.5 0,-0.5"/>
<text text-anchor="start" x="8" y="-17.3" font-family="Helvetica,sans-Serif" font-size="9.00">tracker::LAPTrack::</text>
<text text-anchor="middle" x="46.5" y="-7.3" font-family="Helvetica,sans-Serif" font-size="9.00">initializeTracks</text>
</g>
<!-- Node2 -->
<g id="node2" class="node"><title>Node2</title>
<g id="a_node2"><a xlink:href="classtracker_1_1Tracker.html#a54cebc540275536380aca0d9ecb7e575" target="_top" xlink:title="tracker::Tracker::initialize\lTracks">
<polygon fill="white" stroke="black" points="129,-0.5 129,-28.5 247,-28.5 247,-0.5 129,-0.5"/>
<text text-anchor="start" x="137" y="-17.3" font-family="Helvetica,sans-Serif" font-size="9.00">tracker::Tracker::initialize</text>
<text text-anchor="middle" x="188" y="-7.3" font-family="Helvetica,sans-Serif" font-size="9.00">Tracks</text>
</a>
</g>
</g>
<!-- Node1&#45;&gt;Node2 -->
<g id="edge1" class="edge"><title>Node1&#45;&gt;Node2</title>
<path fill="none" stroke="midnightblue" d="M93.1775,-14.5C101.288,-14.5 109.892,-14.5 118.473,-14.5"/>
<polygon fill="midnightblue" stroke="midnightblue" points="118.503,-18.0001 128.503,-14.5 118.503,-11.0001 118.503,-18.0001"/>
</g>
</g>
</svg>
