<?xml version="1.0" encoding="UTF-8" standalone="no"?>
<!DOCTYPE svg PUBLIC "-//W3C//DTD SVG 1.1//EN"
 "http://www.w3.org/Graphics/SVG/1.1/DTD/svg11.dtd">
<!-- Generated by graphviz version 2.38.0 (20140413.2041)
 -->
<!-- Title: tracker::LAPTrack::generateTracks Pages: 1 -->
<svg width="384pt" height="131pt"
 viewBox="0.00 0.00 384.00 131.00" xmlns="http://www.w3.org/2000/svg" xmlns:xlink="http://www.w3.org/1999/xlink">
<g id="graph0" class="graph" transform="scale(1 1) rotate(0) translate(4 127)">
<title>tracker::LAPTrack::generateTracks</title>
<polygon fill="white" stroke="none" points="-4,4 -4,-127 380,-127 380,4 -4,4"/>
<!-- Node1 -->
<g id="node1" class="node"><title>Node1</title>
<polygon fill="#bfbfbf" stroke="black" points="0,-46.5 0,-74.5 93,-74.5 93,-46.5 0,-46.5"/>
<text text-anchor="start" x="8" y="-63.3" font-family="Helvetica,sans-Serif" font-size="9.00">tracker::LAPTrack::</text>
<text text-anchor="middle" x="46.5" y="-53.3" font-family="Helvetica,sans-Serif" font-size="9.00">generateTracks</text>
</g>
<!-- Node2 -->
<g id="node2" class="node"><title>Node2</title>
<g id="a_node2"><a xlink:href="classtracker_1_1LAPTrack.html#a7e1ce573ac1f20bbb1f7bb6a51876525" target="_top" xlink:title="tracker::LAPTrack::\lcloseGaps">
<polygon fill="white" stroke="black" points="129,-70.5 129,-98.5 222,-98.5 222,-70.5 129,-70.5"/>
<text text-anchor="start" x="137" y="-87.3" font-family="Helvetica,sans-Serif" font-size="9.00">tracker::LAPTrack::</text>
<text text-anchor="middle" x="175.5" y="-77.3" font-family="Helvetica,sans-Serif" font-size="9.00">closeGaps</text>
</a>
</g>
</g>
<!-- Node1&#45;&gt;Node2 -->
<g id="edge1" class="edge"><title>Node1&#45;&gt;Node2</title>
<path fill="none" stroke="midnightblue" d="M93.3499,-69.1646C101.623,-70.7279 110.33,-72.3734 118.846,-73.9827"/>
<polygon fill="midnightblue" stroke="midnightblue" points="118.241,-77.4303 128.717,-75.8482 119.541,-70.5521 118.241,-77.4303"/>
</g>
<!-- Node5 -->
<g id="node5" class="node"><title>Node5</title>
<g id="a_node5"><a xlink:href="classtracker_1_1LAPTrack.html#acb3db52d2371baf8f96c35cf9e3741bd" target="_top" xlink:title="tracker::LAPTrack::\llinkF2F">
<polygon fill="white" stroke="black" points="129,-23.5 129,-51.5 222,-51.5 222,-23.5 129,-23.5"/>
<text text-anchor="start" x="137" y="-40.3" font-family="Helvetica,sans-Serif" font-size="9.00">tracker::LAPTrack::</text>
<text text-anchor="middle" x="175.5" y="-30.3" font-family="Helvetica,sans-Serif" font-size="9.00">linkF2F</text>
</a>
</g>
</g>
<!-- Node1&#45;&gt;Node5 -->
<g id="edge4" class="edge"><title>Node1&#45;&gt;Node5</title>
<path fill="none" stroke="midnightblue" d="M93.3499,-52.1965C101.623,-50.6982 110.33,-49.1214 118.846,-47.5791"/>
<polygon fill="midnightblue" stroke="midnightblue" points="119.501,-51.0174 128.717,-45.7913 118.254,-44.1295 119.501,-51.0174"/>
</g>
<!-- Node3 -->
<g id="node3" class="node"><title>Node3</title>
<g id="a_node3"><a xlink:href="classtracker_1_1LAPTrack.html#a3a195a7fa82a0019115bc3fd53a38e5f" target="_top" xlink:title="tracker::LAPTrack::\lcomputeGapCloseMatrix">
<polygon fill="white" stroke="black" points="258,-94.5 258,-122.5 376,-122.5 376,-94.5 258,-94.5"/>
<text text-anchor="start" x="266" y="-111.3" font-family="Helvetica,sans-Serif" font-size="9.00">tracker::LAPTrack::</text>
<text text-anchor="middle" x="317" y="-101.3" font-family="Helvetica,sans-Serif" font-size="9.00">computeGapCloseMatrix</text>
</a>
</g>
</g>
<!-- Node2&#45;&gt;Node3 -->
<g id="edge2" class="edge"><title>Node2&#45;&gt;Node3</title>
<path fill="none" stroke="midnightblue" d="M222.178,-92.3585C230.288,-93.7538 238.892,-95.2342 247.473,-96.7103"/>
<polygon fill="midnightblue" stroke="midnightblue" points="247.054,-100.19 257.503,-98.4359 248.241,-93.291 247.054,-100.19"/>
</g>
<!-- Node4 -->
<g id="node4" class="node"><title>Node4</title>
<g id="a_node4"><a xlink:href="classtracker_1_1LAP__JVSparse.html#aea34e1276a8b6d217bd08a8a3b1156a8" target="_top" xlink:title="tracker::LAP_JVSparse\l::solve">
<polygon fill="white" stroke="black" points="261.5,-47.5 261.5,-75.5 372.5,-75.5 372.5,-47.5 261.5,-47.5"/>
<text text-anchor="start" x="269.5" y="-64.3" font-family="Helvetica,sans-Serif" font-size="9.00">tracker::LAP_JVSparse</text>
<text text-anchor="middle" x="317" y="-54.3" font-family="Helvetica,sans-Serif" font-size="9.00">::solve</text>
</a>
</g>
</g>
<!-- Node2&#45;&gt;Node4 -->
<g id="edge3" class="edge"><title>Node2&#45;&gt;Node4</title>
<path fill="none" stroke="midnightblue" d="M222.178,-76.9689C231.496,-75.4326 241.467,-73.7886 251.304,-72.1668"/>
<polygon fill="midnightblue" stroke="midnightblue" points="252.175,-75.5704 261.473,-70.4902 251.036,-68.6637 252.175,-75.5704"/>
</g>
<!-- Node5&#45;&gt;Node4 -->
<g id="edge6" class="edge"><title>Node5&#45;&gt;Node4</title>
<path fill="none" stroke="midnightblue" d="M222.178,-45.3585C231.594,-46.9785 241.677,-48.7132 251.614,-50.4229"/>
<polygon fill="midnightblue" stroke="midnightblue" points="251.024,-53.8727 261.473,-52.1189 252.211,-46.974 251.024,-53.8727"/>
</g>
<!-- Node6 -->
<g id="node6" class="node"><title>Node6</title>
<g id="a_node6"><a xlink:href="classtracker_1_1LAPTrack.html#a993c8f819a93d6d2ed442a1678c5ce81" target="_top" xlink:title="tracker::LAPTrack::\lcomputeF2FCostMat">
<polygon fill="white" stroke="black" points="266.5,-0.5 266.5,-28.5 367.5,-28.5 367.5,-0.5 266.5,-0.5"/>
<text text-anchor="start" x="274.5" y="-17.3" font-family="Helvetica,sans-Serif" font-size="9.00">tracker::LAPTrack::</text>
<text text-anchor="middle" x="317" y="-7.3" font-family="Helvetica,sans-Serif" font-size="9.00">computeF2FCostMat</text>
</a>
</g>
</g>
<!-- Node5&#45;&gt;Node6 -->
<g id="edge5" class="edge"><title>Node5&#45;&gt;Node6</title>
<path fill="none" stroke="midnightblue" d="M222.178,-29.9689C233.117,-28.1653 244.957,-26.2132 256.422,-24.3228"/>
<polygon fill="midnightblue" stroke="midnightblue" points="257.072,-27.7631 266.369,-22.6828 255.933,-20.8563 257.072,-27.7631"/>
</g>
</g>
</svg>
