<?xml version="1.0" encoding="UTF-8" standalone="no"?>
<!DOCTYPE svg PUBLIC "-//W3C//DTD SVG 1.1//EN"
 "http://www.w3.org/Graphics/SVG/1.1/DTD/svg11.dtd">
<!-- Generated by graphviz version 2.38.0 (20140413.2041)
 -->
<!-- Title: tracker::LAPTrack::computeF2FCostMat Pages: 1 -->
<svg width="367pt" height="84pt"
 viewBox="0.00 0.00 367.00 84.00" xmlns="http://www.w3.org/2000/svg" xmlns:xlink="http://www.w3.org/1999/xlink">
<g id="graph0" class="graph" transform="scale(1 1) rotate(0) translate(4 80)">
<title>tracker::LAPTrack::computeF2FCostMat</title>
<polygon fill="white" stroke="none" points="-4,4 -4,-80 363,-80 363,4 -4,4"/>
<!-- Node1 -->
<g id="node1" class="node"><title>Node1</title>
<polygon fill="#bfbfbf" stroke="black" points="0,-23.5 0,-51.5 101,-51.5 101,-23.5 0,-23.5"/>
<text text-anchor="start" x="8" y="-40.3" font-family="Helvetica,sans-Serif" font-size="9.00">tracker::LAPTrack::</text>
<text text-anchor="middle" x="50.5" y="-30.3" font-family="Helvetica,sans-Serif" font-size="9.00">computeF2FCostMat</text>
</g>
<!-- Node2 -->
<g id="node2" class="node"><title>Node2</title>
<g id="a_node2"><a xlink:href="classtracker_1_1LAPTrack.html#a1f334e86d674d5fa4eb69b281e3db62c" target="_top" xlink:title="tracker::LAPTrack::\ldebugF2F">
<polygon fill="white" stroke="black" points="137,-47.5 137,-75.5 230,-75.5 230,-47.5 137,-47.5"/>
<text text-anchor="start" x="145" y="-64.3" font-family="Helvetica,sans-Serif" font-size="9.00">tracker::LAPTrack::</text>
<text text-anchor="middle" x="183.5" y="-54.3" font-family="Helvetica,sans-Serif" font-size="9.00">debugF2F</text>
</a>
</g>
</g>
<!-- Node1&#45;&gt;Node2 -->
<g id="edge1" class="edge"><title>Node1&#45;&gt;Node2</title>
<path fill="none" stroke="midnightblue" d="M111.066,-48.4128C119.704,-49.9954 128.481,-51.6033 136.789,-53.1254"/>
<polygon fill="midnightblue" stroke="midnightblue" points="111.493,-44.9328 101.025,-46.5734 110.231,-51.8182 111.493,-44.9328"/>
</g>
<!-- Node3 -->
<g id="node3" class="node"><title>Node3</title>
<g id="a_node3"><a xlink:href="classtracker_1_1LAPTrack.html#acb3db52d2371baf8f96c35cf9e3741bd" target="_top" xlink:title="tracker::LAPTrack::\llinkF2F">
<polygon fill="white" stroke="black" points="137,-0.5 137,-28.5 230,-28.5 230,-0.5 137,-0.5"/>
<text text-anchor="start" x="145" y="-17.3" font-family="Helvetica,sans-Serif" font-size="9.00">tracker::LAPTrack::</text>
<text text-anchor="middle" x="183.5" y="-7.3" font-family="Helvetica,sans-Serif" font-size="9.00">linkF2F</text>
</a>
</g>
</g>
<!-- Node1&#45;&gt;Node3 -->
<g id="edge2" class="edge"><title>Node1&#45;&gt;Node3</title>
<path fill="none" stroke="midnightblue" d="M111.066,-27.0419C119.704,-25.5253 128.481,-23.9843 136.789,-22.5256"/>
<polygon fill="midnightblue" stroke="midnightblue" points="110.27,-23.6281 101.025,-28.8047 111.48,-30.5226 110.27,-23.6281"/>
</g>
<!-- Node4 -->
<g id="node4" class="node"><title>Node4</title>
<g id="a_node4"><a xlink:href="classtracker_1_1LAPTrack.html#aac61350c9f3e2c12c9aef7892a718f38" target="_top" xlink:title="tracker::LAPTrack::\lgenerateTracks">
<polygon fill="white" stroke="black" points="266,-0.5 266,-28.5 359,-28.5 359,-0.5 266,-0.5"/>
<text text-anchor="start" x="274" y="-17.3" font-family="Helvetica,sans-Serif" font-size="9.00">tracker::LAPTrack::</text>
<text text-anchor="middle" x="312.5" y="-7.3" font-family="Helvetica,sans-Serif" font-size="9.00">generateTracks</text>
</a>
</g>
</g>
<!-- Node3&#45;&gt;Node4 -->
<g id="edge3" class="edge"><title>Node3&#45;&gt;Node4</title>
<path fill="none" stroke="midnightblue" d="M240.501,-14.5C248.93,-14.5 257.537,-14.5 265.717,-14.5"/>
<polygon fill="midnightblue" stroke="midnightblue" points="240.35,-11.0001 230.35,-14.5 240.35,-18.0001 240.35,-11.0001"/>
</g>
</g>
</svg>
