<?xml version="1.0" encoding="UTF-8" standalone="no"?>
<!DOCTYPE svg PUBLIC "-//W3C//DTD SVG 1.1//EN"
 "http://www.w3.org/Graphics/SVG/1.1/DTD/svg11.dtd">
<!-- Generated by graphviz version 2.38.0 (20140413.2041)
 -->
<!-- Title: Graphical Class Hierarchy Pages: 1 -->
<svg width="248pt" height="64pt"
 viewBox="0.00 0.00 248.00 64.00" xmlns="http://www.w3.org/2000/svg" xmlns:xlink="http://www.w3.org/1999/xlink">
<g id="graph0" class="graph" transform="scale(1 1) rotate(0) translate(4 60)">
<title>Graphical Class Hierarchy</title>
<polygon fill="white" stroke="none" points="-4,4 -4,-60 244,-60 244,4 -4,4"/>
<!-- Node1 -->
<g id="node1" class="node"><title>Node1</title>
<polygon fill="white" stroke="#bfbfbf" points="0,-18.5 0,-36.5 68,-36.5 68,-18.5 0,-18.5"/>
<text text-anchor="middle" x="34" y="-25.3" font-family="Helvetica,sans-Serif" font-size="9.00">TrackerError</text>
</g>
<!-- Node2 -->
<g id="node2" class="node"><title>Node2</title>
<g id="a_node2"><a xlink:href="structtracker_1_1LogicalError.html" target="_top" xlink:title="Parameter value is not valid. ">
<polygon fill="white" stroke="black" points="122.5,-37.5 122.5,-55.5 221.5,-55.5 221.5,-37.5 122.5,-37.5"/>
<text text-anchor="middle" x="172" y="-44.3" font-family="Helvetica,sans-Serif" font-size="9.00">tracker::LogicalError</text>
</a>
</g>
</g>
<!-- Node1&#45;&gt;Node2 -->
<g id="edge1" class="edge"><title>Node1&#45;&gt;Node2</title>
<path fill="none" stroke="midnightblue" d="M78.1809,-33.5326C92.2488,-35.498 107.959,-37.6928 122.397,-39.7098"/>
<polygon fill="midnightblue" stroke="midnightblue" points="78.6575,-30.0653 68.2693,-32.1479 77.6889,-36.998 78.6575,-30.0653"/>
</g>
<!-- Node3 -->
<g id="node3" class="node"><title>Node3</title>
<g id="a_node3"><a xlink:href="structtracker_1_1ParameterValueError.html" target="_top" xlink:title="Parameter value is not valid. ">
<polygon fill="white" stroke="black" points="104,-0.5 104,-18.5 240,-18.5 240,-0.5 104,-0.5"/>
<text text-anchor="middle" x="172" y="-7.3" font-family="Helvetica,sans-Serif" font-size="9.00">tracker::ParameterValueError</text>
</a>
</g>
</g>
<!-- Node1&#45;&gt;Node3 -->
<g id="edge2" class="edge"><title>Node1&#45;&gt;Node3</title>
<path fill="none" stroke="midnightblue" d="M78.2423,-21.7768C86.3806,-20.6996 95.0667,-19.55 103.737,-18.4025"/>
<polygon fill="midnightblue" stroke="midnightblue" points="77.7236,-18.3148 68.2693,-23.0967 78.6422,-25.2543 77.7236,-18.3148"/>
</g>
</g>
</svg>
