<?xml version="1.0" encoding="UTF-8" standalone="no"?>
<!DOCTYPE svg PUBLIC "-//W3C//DTD SVG 1.1//EN"
 "http://www.w3.org/Graphics/SVG/1.1/DTD/svg11.dtd">
<!-- Generated by graphviz version 2.38.0 (20140413.2041)
 -->
<!-- Title: LAP_JVSparse.h Pages: 1 -->
<svg width="196pt" height="82pt"
 viewBox="0.00 0.00 196.00 82.00" xmlns="http://www.w3.org/2000/svg" xmlns:xlink="http://www.w3.org/1999/xlink">
<g id="graph0" class="graph" transform="scale(1 1) rotate(0) translate(4 78)">
<title>LAP_JVSparse.h</title>
<polygon fill="white" stroke="none" points="-4,4 -4,-78 192,-78 192,4 -4,4"/>
<!-- Node1 -->
<g id="node1" class="node"><title>Node1</title>
<polygon fill="#bfbfbf" stroke="black" points="56,-55.5 56,-73.5 142,-73.5 142,-55.5 56,-55.5"/>
<text text-anchor="middle" x="99" y="-62.3" font-family="Helvetica,sans-Serif" font-size="9.00">LAP_JVSparse.h</text>
</g>
<!-- Node2 -->
<g id="node2" class="node"><title>Node2</title>
<g id="a_node2"><a xlink:href="LAP__JVSparse_8cpp.html" target="_top" xlink:title="The member definitions for the LAP Jonker Volgenant algorithm. ">
<polygon fill="white" stroke="black" points="0,-0.5 0,-18.5 96,-18.5 96,-0.5 0,-0.5"/>
<text text-anchor="middle" x="48" y="-7.3" font-family="Helvetica,sans-Serif" font-size="9.00">LAP_JVSparse.cpp</text>
</a>
</g>
</g>
<!-- Node1&#45;&gt;Node2 -->
<g id="edge1" class="edge"><title>Node1&#45;&gt;Node2</title>
<path fill="none" stroke="midnightblue" d="M83.9139,-47.8223C74.6596,-38.2051 63.1958,-26.2917 55.7458,-18.5496"/>
<polygon fill="midnightblue" stroke="midnightblue" points="81.5754,-50.4398 91.0312,-55.2188 86.6194,-45.5862 81.5754,-50.4398"/>
</g>
<!-- Node3 -->
<g id="node3" class="node"><title>Node3</title>
<g id="a_node3"><a xlink:href="LAPTrack_8cpp.html" target="_top" xlink:title="The member definitions for LAPTrack. ">
<polygon fill="white" stroke="black" points="114,-0.5 114,-18.5 188,-18.5 188,-0.5 114,-0.5"/>
<text text-anchor="middle" x="151" y="-7.3" font-family="Helvetica,sans-Serif" font-size="9.00">LAPTrack.cpp</text>
</a>
</g>
</g>
<!-- Node1&#45;&gt;Node3 -->
<g id="edge2" class="edge"><title>Node1&#45;&gt;Node3</title>
<path fill="none" stroke="midnightblue" d="M114.382,-47.8223C123.818,-38.2051 135.506,-26.2917 143.102,-18.5496"/>
<polygon fill="midnightblue" stroke="midnightblue" points="111.63,-45.6294 107.125,-55.2188 116.627,-50.5318 111.63,-45.6294"/>
</g>
</g>
</svg>
