<?xml version="1.0" encoding="UTF-8" standalone="no"?>
<!DOCTYPE svg PUBLIC "-//W3C//DTD SVG 1.1//EN"
 "http://www.w3.org/Graphics/SVG/1.1/DTD/svg11.dtd">
<!-- Generated by graphviz version 2.38.0 (20140413.2041)
 -->
<!-- Title: LAP_JVSparse.cpp Pages: 1 -->
<svg width="325pt" height="137pt"
 viewBox="0.00 0.00 325.00 137.00" xmlns="http://www.w3.org/2000/svg" xmlns:xlink="http://www.w3.org/1999/xlink">
<g id="graph0" class="graph" transform="scale(1 1) rotate(0) translate(4 133)">
<title>LAP_JVSparse.cpp</title>
<polygon fill="white" stroke="none" points="-4,4 -4,-133 321,-133 321,4 -4,4"/>
<!-- Node1 -->
<g id="node1" class="node"><title>Node1</title>
<polygon fill="#bfbfbf" stroke="black" points="71.5,-110.5 71.5,-128.5 167.5,-128.5 167.5,-110.5 71.5,-110.5"/>
<text text-anchor="middle" x="119.5" y="-117.3" font-family="Helvetica,sans-Serif" font-size="9.00">LAP_JVSparse.cpp</text>
</g>
<!-- Node2 -->
<g id="node2" class="node"><title>Node2</title>
<polygon fill="white" stroke="#bfbfbf" points="0,-55.5 0,-73.5 41,-73.5 41,-55.5 0,-55.5"/>
<text text-anchor="middle" x="20.5" y="-62.3" font-family="Helvetica,sans-Serif" font-size="9.00">cmath</text>
</g>
<!-- Node1&#45;&gt;Node2 -->
<g id="edge1" class="edge"><title>Node1&#45;&gt;Node2</title>
<path fill="none" stroke="midnightblue" d="M104.464,-110.45C88.5459,-101.929 63.188,-88.3532 44.5004,-78.3487"/>
<polygon fill="midnightblue" stroke="midnightblue" points="46.1455,-75.2595 35.6775,-73.6253 42.8417,-81.4308 46.1455,-75.2595"/>
</g>
<!-- Node3 -->
<g id="node3" class="node"><title>Node3</title>
<polygon fill="white" stroke="#bfbfbf" points="59.5,-55.5 59.5,-73.5 111.5,-73.5 111.5,-55.5 59.5,-55.5"/>
<text text-anchor="middle" x="85.5" y="-62.3" font-family="Helvetica,sans-Serif" font-size="9.00">iostream</text>
</g>
<!-- Node1&#45;&gt;Node3 -->
<g id="edge2" class="edge"><title>Node1&#45;&gt;Node3</title>
<path fill="none" stroke="midnightblue" d="M114.188,-110.219C109.369,-102.707 102.122,-91.411 96.118,-82.0515"/>
<polygon fill="midnightblue" stroke="midnightblue" points="99.0094,-80.0767 90.6639,-73.5496 93.1175,-83.8564 99.0094,-80.0767"/>
</g>
<!-- Node4 -->
<g id="node4" class="node"><title>Node4</title>
<polygon fill="white" stroke="#bfbfbf" points="129.5,-55.5 129.5,-73.5 179.5,-73.5 179.5,-55.5 129.5,-55.5"/>
<text text-anchor="middle" x="154.5" y="-62.3" font-family="Helvetica,sans-Serif" font-size="9.00">iomanip</text>
</g>
<!-- Node1&#45;&gt;Node4 -->
<g id="edge3" class="edge"><title>Node1&#45;&gt;Node4</title>
<path fill="none" stroke="midnightblue" d="M124.969,-110.219C129.929,-102.707 137.389,-91.411 143.57,-82.0515"/>
<polygon fill="midnightblue" stroke="midnightblue" points="146.594,-83.823 149.184,-73.5496 140.753,-79.9655 146.594,-83.823"/>
</g>
<!-- Node5 -->
<g id="node5" class="node"><title>Node5</title>
<g id="a_node5"><a xlink:href="LAP__JVSparse_8h.html" target="_top" xlink:title="The class declaration for the LAP Jonker Volgenant algorithm. ">
<polygon fill="white" stroke="black" points="198,-55.5 198,-73.5 317,-73.5 317,-55.5 198,-55.5"/>
<text text-anchor="middle" x="257.5" y="-62.3" font-family="Helvetica,sans-Serif" font-size="9.00">Tracker/LAP_JVSparse.h</text>
</a>
</g>
</g>
<!-- Node1&#45;&gt;Node5 -->
<g id="edge4" class="edge"><title>Node1&#45;&gt;Node5</title>
<path fill="none" stroke="midnightblue" d="M140.459,-110.45C163.459,-101.617 200.596,-87.3546 226.861,-77.267"/>
<polygon fill="midnightblue" stroke="midnightblue" points="228.263,-80.478 236.344,-73.6253 225.753,-73.9433 228.263,-80.478"/>
</g>
<!-- Node6 -->
<g id="node6" class="node"><title>Node6</title>
<polygon fill="white" stroke="#bfbfbf" points="197,-0.5 197,-18.5 252,-18.5 252,-0.5 197,-0.5"/>
<text text-anchor="middle" x="224.5" y="-7.3" font-family="Helvetica,sans-Serif" font-size="9.00">armadillo</text>
</g>
<!-- Node5&#45;&gt;Node6 -->
<g id="edge5" class="edge"><title>Node5&#45;&gt;Node6</title>
<path fill="none" stroke="midnightblue" d="M252.344,-55.2188C247.667,-47.7074 240.633,-36.411 234.806,-27.0515"/>
<polygon fill="midnightblue" stroke="midnightblue" points="237.769,-25.1886 229.512,-18.5496 231.826,-28.8885 237.769,-25.1886"/>
</g>
<!-- Node7 -->
<g id="node7" class="node"><title>Node7</title>
<polygon fill="white" stroke="#bfbfbf" points="270,-0.5 270,-18.5 311,-18.5 311,-0.5 270,-0.5"/>
<text text-anchor="middle" x="290.5" y="-7.3" font-family="Helvetica,sans-Serif" font-size="9.00">vector</text>
</g>
<!-- Node5&#45;&gt;Node7 -->
<g id="edge6" class="edge"><title>Node5&#45;&gt;Node7</title>
<path fill="none" stroke="midnightblue" d="M262.656,-55.2188C267.333,-47.7074 274.367,-36.411 280.194,-27.0515"/>
<polygon fill="midnightblue" stroke="midnightblue" points="283.174,-28.8885 285.488,-18.5496 277.231,-25.1886 283.174,-28.8885"/>
</g>
</g>
</svg>
