<?xml version="1.0" encoding="UTF-8" standalone="no"?>
<!DOCTYPE svg PUBLIC "-//W3C//DTD SVG 1.1//EN"
 "http://www.w3.org/Graphics/SVG/1.1/DTD/svg11.dtd">
<!-- Generated by graphviz version 2.38.0 (20140413.2041)
 -->
<!-- Title: LAP_JVSparse.h Pages: 1 -->
<svg width="122pt" height="82pt"
 viewBox="0.00 0.00 122.00 82.00" xmlns="http://www.w3.org/2000/svg" xmlns:xlink="http://www.w3.org/1999/xlink">
<g id="graph0" class="graph" transform="scale(1 1) rotate(0) translate(4 78)">
<title>LAP_JVSparse.h</title>
<polygon fill="white" stroke="none" points="-4,4 -4,-78 118,-78 118,4 -4,4"/>
<!-- Node1 -->
<g id="node1" class="node"><title>Node1</title>
<polygon fill="#bfbfbf" stroke="black" points="17.5,-55.5 17.5,-73.5 103.5,-73.5 103.5,-55.5 17.5,-55.5"/>
<text text-anchor="middle" x="60.5" y="-62.3" font-family="Helvetica,sans-Serif" font-size="9.00">LAP_JVSparse.h</text>
</g>
<!-- Node2 -->
<g id="node2" class="node"><title>Node2</title>
<polygon fill="white" stroke="#bfbfbf" points="0,-0.5 0,-18.5 55,-18.5 55,-0.5 0,-0.5"/>
<text text-anchor="middle" x="27.5" y="-7.3" font-family="Helvetica,sans-Serif" font-size="9.00">armadillo</text>
</g>
<!-- Node1&#45;&gt;Node2 -->
<g id="edge1" class="edge"><title>Node1&#45;&gt;Node2</title>
<path fill="none" stroke="midnightblue" d="M55.3438,-55.2188C50.6669,-47.7074 43.6333,-36.411 37.8057,-27.0515"/>
<polygon fill="midnightblue" stroke="midnightblue" points="40.7688,-25.1886 32.512,-18.5496 34.8265,-28.8885 40.7688,-25.1886"/>
</g>
<!-- Node3 -->
<g id="node3" class="node"><title>Node3</title>
<polygon fill="white" stroke="#bfbfbf" points="73,-0.5 73,-18.5 114,-18.5 114,-0.5 73,-0.5"/>
<text text-anchor="middle" x="93.5" y="-7.3" font-family="Helvetica,sans-Serif" font-size="9.00">vector</text>
</g>
<!-- Node1&#45;&gt;Node3 -->
<g id="edge2" class="edge"><title>Node1&#45;&gt;Node3</title>
<path fill="none" stroke="midnightblue" d="M65.6562,-55.2188C70.3331,-47.7074 77.3667,-36.411 83.1943,-27.0515"/>
<polygon fill="midnightblue" stroke="midnightblue" points="86.1735,-28.8885 88.488,-18.5496 80.2312,-25.1886 86.1735,-28.8885"/>
</g>
</g>
</svg>
