<?xml version="1.0" encoding="UTF-8" standalone="no"?>
<!DOCTYPE svg PUBLIC "-//W3C//DTD SVG 1.1//EN"
 "http://www.w3.org/Graphics/SVG/1.1/DTD/svg11.dtd">
<!-- Generated by graphviz version 2.38.0 (20140413.2041)
 -->
<!-- Title: LAPTrack.h Pages: 1 -->
<svg width="465pt" height="147pt"
 viewBox="0.00 0.00 465.00 147.00" xmlns="http://www.w3.org/2000/svg" xmlns:xlink="http://www.w3.org/1999/xlink">
<g id="graph0" class="graph" transform="scale(1 1) rotate(0) translate(4 143)">
<title>LAPTrack.h</title>
<polygon fill="white" stroke="none" points="-4,4 -4,-143 461,-143 461,4 -4,4"/>
<!-- Node1 -->
<g id="node1" class="node"><title>Node1</title>
<polygon fill="#bfbfbf" stroke="black" points="174.5,-120.5 174.5,-138.5 238.5,-138.5 238.5,-120.5 174.5,-120.5"/>
<text text-anchor="middle" x="206.5" y="-127.3" font-family="Helvetica,sans-Serif" font-size="9.00">LAPTrack.h</text>
</g>
<!-- Node2 -->
<g id="node2" class="node"><title>Node2</title>
<g id="a_node2"><a xlink:href="Tracker_8h.html" target="_top" xlink:title="The class declaration and inline and templated functions for Tracker. ">
<polygon fill="white" stroke="black" points="162.5,-65.5 162.5,-83.5 250.5,-83.5 250.5,-65.5 162.5,-65.5"/>
<text text-anchor="middle" x="206.5" y="-72.3" font-family="Helvetica,sans-Serif" font-size="9.00">Tracker/Tracker.h</text>
</a>
</g>
</g>
<!-- Node1&#45;&gt;Node2 -->
<g id="edge1" class="edge"><title>Node1&#45;&gt;Node2</title>
<path fill="none" stroke="midnightblue" d="M206.5,-120.219C206.5,-113.177 206.5,-102.808 206.5,-93.8277"/>
<polygon fill="midnightblue" stroke="midnightblue" points="210,-93.5495 206.5,-83.5496 203,-93.5496 210,-93.5495"/>
</g>
<!-- Node3 -->
<g id="node3" class="node"><title>Node3</title>
<polygon fill="white" stroke="#bfbfbf" points="0,-5.5 0,-23.5 43,-23.5 43,-5.5 0,-5.5"/>
<text text-anchor="middle" x="21.5" y="-12.3" font-family="Helvetica,sans-Serif" font-size="9.00">cstdint</text>
</g>
<!-- Node2&#45;&gt;Node3 -->
<g id="edge2" class="edge"><title>Node2&#45;&gt;Node3</title>
<path fill="none" stroke="midnightblue" d="M173.404,-65.4668C141.719,-57.4332 92.7717,-44.1222 51.5,-29 50.2934,-28.5579 49.0671,-28.0892 47.834,-27.602"/>
<polygon fill="midnightblue" stroke="midnightblue" points="49.0323,-24.3088 38.4586,-23.6399 46.3074,-30.7567 49.0323,-24.3088"/>
</g>
<!-- Node4 -->
<g id="node4" class="node"><title>Node4</title>
<polygon fill="white" stroke="#bfbfbf" points="61,-5.5 61,-23.5 116,-23.5 116,-5.5 61,-5.5"/>
<text text-anchor="middle" x="88.5" y="-12.3" font-family="Helvetica,sans-Serif" font-size="9.00">armadillo</text>
</g>
<!-- Node2&#45;&gt;Node4 -->
<g id="edge3" class="edge"><title>Node2&#45;&gt;Node4</title>
<path fill="none" stroke="midnightblue" d="M190.093,-65.4353C170.477,-55.7939 137.413,-39.5418 114.351,-28.2065"/>
<polygon fill="midnightblue" stroke="midnightblue" points="115.667,-24.9533 105.148,-23.6831 112.579,-31.2355 115.667,-24.9533"/>
</g>
<!-- Node5 -->
<g id="node5" class="node"><title>Node5</title>
<polygon fill="white" stroke="#bfbfbf" points="134,-5.5 134,-23.5 169,-23.5 169,-5.5 134,-5.5"/>
<text text-anchor="middle" x="151.5" y="-12.3" font-family="Helvetica,sans-Serif" font-size="9.00">map</text>
</g>
<!-- Node2&#45;&gt;Node5 -->
<g id="edge4" class="edge"><title>Node2&#45;&gt;Node5</title>
<path fill="none" stroke="midnightblue" d="M198.852,-65.4353C190.492,-56.6187 176.889,-42.2743 166.404,-31.2165"/>
<polygon fill="midnightblue" stroke="midnightblue" points="168.859,-28.7197 159.439,-23.8718 163.78,-33.5364 168.859,-28.7197"/>
</g>
<!-- Node6 -->
<g id="node6" class="node"><title>Node6</title>
<polygon fill="white" stroke="#bfbfbf" points="187,-5.5 187,-23.5 226,-23.5 226,-5.5 187,-5.5"/>
<text text-anchor="middle" x="206.5" y="-12.3" font-family="Helvetica,sans-Serif" font-size="9.00">string</text>
</g>
<!-- Node2&#45;&gt;Node6 -->
<g id="edge5" class="edge"><title>Node2&#45;&gt;Node6</title>
<path fill="none" stroke="midnightblue" d="M206.5,-65.4353C206.5,-57.3891 206.5,-44.7388 206.5,-34.1846"/>
<polygon fill="midnightblue" stroke="midnightblue" points="210,-33.8717 206.5,-23.8718 203,-33.8718 210,-33.8717"/>
</g>
<!-- Node7 -->
<g id="node7" class="node"><title>Node7</title>
<polygon fill="white" stroke="#bfbfbf" points="244,-5.5 244,-23.5 273,-23.5 273,-5.5 244,-5.5"/>
<text text-anchor="middle" x="258.5" y="-12.3" font-family="Helvetica,sans-Serif" font-size="9.00">list</text>
</g>
<!-- Node2&#45;&gt;Node7 -->
<g id="edge6" class="edge"><title>Node2&#45;&gt;Node7</title>
<path fill="none" stroke="midnightblue" d="M213.73,-65.4353C221.558,-56.7043 234.246,-42.5523 244.12,-31.5395"/>
<polygon fill="midnightblue" stroke="midnightblue" points="246.925,-33.6539 250.994,-23.8718 241.713,-28.9811 246.925,-33.6539"/>
</g>
<!-- Node8 -->
<g id="node8" class="node"><title>Node8</title>
<polygon fill="white" stroke="#bfbfbf" points="291,-5.5 291,-23.5 332,-23.5 332,-5.5 291,-5.5"/>
<text text-anchor="middle" x="311.5" y="-12.3" font-family="Helvetica,sans-Serif" font-size="9.00">vector</text>
</g>
<!-- Node2&#45;&gt;Node8 -->
<g id="edge7" class="edge"><title>Node2&#45;&gt;Node8</title>
<path fill="none" stroke="midnightblue" d="M221.1,-65.4353C238.32,-55.923 267.19,-39.9759 287.668,-28.6645"/>
<polygon fill="midnightblue" stroke="midnightblue" points="289.625,-31.582 296.686,-23.6831 286.24,-25.4547 289.625,-31.582"/>
</g>
<!-- Node9 -->
<g id="node9" class="node"><title>Node9</title>
<polygon fill="white" stroke="#bfbfbf" points="350,-0.5 350,-28.5 457,-28.5 457,-0.5 350,-0.5"/>
<text text-anchor="start" x="358" y="-17.3" font-family="Helvetica,sans-Serif" font-size="9.00">BacktraceException</text>
<text text-anchor="middle" x="403.5" y="-7.3" font-family="Helvetica,sans-Serif" font-size="9.00">/BacktraceException.h</text>
</g>
<!-- Node2&#45;&gt;Node9 -->
<g id="edge8" class="edge"><title>Node2&#45;&gt;Node9</title>
<path fill="none" stroke="midnightblue" d="M233.892,-65.4353C263.687,-56.6634 312.067,-42.4193 349.547,-31.3847"/>
<polygon fill="midnightblue" stroke="midnightblue" points="350.708,-34.6914 359.312,-28.5096 348.731,-27.9764 350.708,-34.6914"/>
</g>
</g>
</svg>
