<?xml version="1.0" encoding="UTF-8" standalone="no"?>
<!DOCTYPE svg PUBLIC "-//W3C//DTD SVG 1.1//EN"
 "http://www.w3.org/Graphics/SVG/1.1/DTD/svg11.dtd">
<!-- Generated by graphviz version 2.38.0 (20140413.2041)
 -->
<!-- Title: LAPTrack.cpp Pages: 1 -->
<svg width="465pt" height="202pt"
 viewBox="0.00 0.00 465.00 202.00" xmlns="http://www.w3.org/2000/svg" xmlns:xlink="http://www.w3.org/1999/xlink">
<g id="graph0" class="graph" transform="scale(1 1) rotate(0) translate(4 198)">
<title>LAPTrack.cpp</title>
<polygon fill="white" stroke="none" points="-4,4 -4,-198 461,-198 461,4 -4,4"/>
<!-- Node1 -->
<g id="node1" class="node"><title>Node1</title>
<polygon fill="#bfbfbf" stroke="black" points="111.5,-175.5 111.5,-193.5 185.5,-193.5 185.5,-175.5 111.5,-175.5"/>
<text text-anchor="middle" x="148.5" y="-182.3" font-family="Helvetica,sans-Serif" font-size="9.00">LAPTrack.cpp</text>
</g>
<!-- Node2 -->
<g id="node2" class="node"><title>Node2</title>
<g id="a_node2"><a xlink:href="LAPTrack_8h.html" target="_top" xlink:title="The class declaration and inline and templated functions for LAPTrack. ">
<polygon fill="white" stroke="black" points="144,-120.5 144,-138.5 241,-138.5 241,-120.5 144,-120.5"/>
<text text-anchor="middle" x="192.5" y="-127.3" font-family="Helvetica,sans-Serif" font-size="9.00">Tracker/LAPTrack.h</text>
</a>
</g>
</g>
<!-- Node1&#45;&gt;Node2 -->
<g id="edge1" class="edge"><title>Node1&#45;&gt;Node2</title>
<path fill="none" stroke="midnightblue" d="M155.375,-175.219C161.741,-167.551 171.381,-155.939 179.243,-146.469"/>
<polygon fill="midnightblue" stroke="midnightblue" points="182.123,-148.479 185.817,-138.55 176.737,-144.008 182.123,-148.479"/>
</g>
<!-- Node11 -->
<g id="node11" class="node"><title>Node11</title>
<g id="a_node11"><a xlink:href="LAP__JVSparse_8h.html" target="_top" xlink:title="The class declaration for the LAP Jonker Volgenant algorithm. ">
<polygon fill="white" stroke="black" points="23,-65.5 23,-83.5 142,-83.5 142,-65.5 23,-65.5"/>
<text text-anchor="middle" x="82.5" y="-72.3" font-family="Helvetica,sans-Serif" font-size="9.00">Tracker/LAP_JVSparse.h</text>
</a>
</g>
</g>
<!-- Node1&#45;&gt;Node11 -->
<g id="edge10" class="edge"><title>Node1&#45;&gt;Node11</title>
<path fill="none" stroke="midnightblue" d="M143.539,-175.382C132.789,-157.791 107.156,-115.846 92.7602,-92.2894"/>
<polygon fill="midnightblue" stroke="midnightblue" points="95.7193,-90.4195 87.5183,-83.7118 89.7463,-94.0697 95.7193,-90.4195"/>
</g>
<!-- Node3 -->
<g id="node3" class="node"><title>Node3</title>
<g id="a_node3"><a xlink:href="Tracker_8h.html" target="_top" xlink:title="The class declaration and inline and templated functions for Tracker. ">
<polygon fill="white" stroke="black" points="160.5,-65.5 160.5,-83.5 248.5,-83.5 248.5,-65.5 160.5,-65.5"/>
<text text-anchor="middle" x="204.5" y="-72.3" font-family="Helvetica,sans-Serif" font-size="9.00">Tracker/Tracker.h</text>
</a>
</g>
</g>
<!-- Node2&#45;&gt;Node3 -->
<g id="edge2" class="edge"><title>Node2&#45;&gt;Node3</title>
<path fill="none" stroke="midnightblue" d="M194.375,-120.219C195.987,-113.099 198.369,-102.577 200.418,-93.5289"/>
<polygon fill="midnightblue" stroke="midnightblue" points="203.883,-94.0756 202.677,-83.5496 197.056,-92.5298 203.883,-94.0756"/>
</g>
<!-- Node4 -->
<g id="node4" class="node"><title>Node4</title>
<polygon fill="white" stroke="#bfbfbf" points="414,-5.5 414,-23.5 457,-23.5 457,-5.5 414,-5.5"/>
<text text-anchor="middle" x="435.5" y="-12.3" font-family="Helvetica,sans-Serif" font-size="9.00">cstdint</text>
</g>
<!-- Node3&#45;&gt;Node4 -->
<g id="edge3" class="edge"><title>Node3&#45;&gt;Node4</title>
<path fill="none" stroke="midnightblue" d="M248.722,-66.4022C289.922,-59.1606 352.751,-46.502 405.5,-29 406.923,-28.5279 408.37,-28.0106 409.82,-27.4625"/>
<polygon fill="midnightblue" stroke="midnightblue" points="411.347,-30.6182 419.237,-23.5474 408.659,-24.1546 411.347,-30.6182"/>
</g>
<!-- Node5 -->
<g id="node5" class="node"><title>Node5</title>
<polygon fill="white" stroke="#bfbfbf" points="59,-5.5 59,-23.5 114,-23.5 114,-5.5 59,-5.5"/>
<text text-anchor="middle" x="86.5" y="-12.3" font-family="Helvetica,sans-Serif" font-size="9.00">armadillo</text>
</g>
<!-- Node3&#45;&gt;Node5 -->
<g id="edge4" class="edge"><title>Node3&#45;&gt;Node5</title>
<path fill="none" stroke="midnightblue" d="M188.093,-65.4353C168.477,-55.7939 135.413,-39.5418 112.351,-28.2065"/>
<polygon fill="midnightblue" stroke="midnightblue" points="113.667,-24.9533 103.148,-23.6831 110.579,-31.2355 113.667,-24.9533"/>
</g>
<!-- Node6 -->
<g id="node6" class="node"><title>Node6</title>
<polygon fill="white" stroke="#bfbfbf" points="132,-5.5 132,-23.5 167,-23.5 167,-5.5 132,-5.5"/>
<text text-anchor="middle" x="149.5" y="-12.3" font-family="Helvetica,sans-Serif" font-size="9.00">map</text>
</g>
<!-- Node3&#45;&gt;Node6 -->
<g id="edge5" class="edge"><title>Node3&#45;&gt;Node6</title>
<path fill="none" stroke="midnightblue" d="M196.852,-65.4353C188.492,-56.6187 174.889,-42.2743 164.404,-31.2165"/>
<polygon fill="midnightblue" stroke="midnightblue" points="166.859,-28.7197 157.439,-23.8718 161.78,-33.5364 166.859,-28.7197"/>
</g>
<!-- Node7 -->
<g id="node7" class="node"><title>Node7</title>
<polygon fill="white" stroke="#bfbfbf" points="185,-5.5 185,-23.5 224,-23.5 224,-5.5 185,-5.5"/>
<text text-anchor="middle" x="204.5" y="-12.3" font-family="Helvetica,sans-Serif" font-size="9.00">string</text>
</g>
<!-- Node3&#45;&gt;Node7 -->
<g id="edge6" class="edge"><title>Node3&#45;&gt;Node7</title>
<path fill="none" stroke="midnightblue" d="M204.5,-65.4353C204.5,-57.3891 204.5,-44.7388 204.5,-34.1846"/>
<polygon fill="midnightblue" stroke="midnightblue" points="208,-33.8717 204.5,-23.8718 201,-33.8718 208,-33.8717"/>
</g>
<!-- Node8 -->
<g id="node8" class="node"><title>Node8</title>
<polygon fill="white" stroke="#bfbfbf" points="242,-5.5 242,-23.5 271,-23.5 271,-5.5 242,-5.5"/>
<text text-anchor="middle" x="256.5" y="-12.3" font-family="Helvetica,sans-Serif" font-size="9.00">list</text>
</g>
<!-- Node3&#45;&gt;Node8 -->
<g id="edge7" class="edge"><title>Node3&#45;&gt;Node8</title>
<path fill="none" stroke="midnightblue" d="M211.73,-65.4353C219.558,-56.7043 232.246,-42.5523 242.12,-31.5395"/>
<polygon fill="midnightblue" stroke="midnightblue" points="244.925,-33.6539 248.994,-23.8718 239.713,-28.9811 244.925,-33.6539"/>
</g>
<!-- Node9 -->
<g id="node9" class="node"><title>Node9</title>
<polygon fill="white" stroke="#bfbfbf" points="0,-5.5 0,-23.5 41,-23.5 41,-5.5 0,-5.5"/>
<text text-anchor="middle" x="20.5" y="-12.3" font-family="Helvetica,sans-Serif" font-size="9.00">vector</text>
</g>
<!-- Node3&#45;&gt;Node9 -->
<g id="edge8" class="edge"><title>Node3&#45;&gt;Node9</title>
<path fill="none" stroke="midnightblue" d="M170.752,-65.4329C139.02,-57.4688 90.4116,-44.2887 49.5,-29 48.3003,-28.5517 47.0813,-28.0745 45.8564,-27.5774"/>
<polygon fill="midnightblue" stroke="midnightblue" points="47.133,-24.3158 36.5679,-23.5227 44.3324,-30.7312 47.133,-24.3158"/>
</g>
<!-- Node10 -->
<g id="node10" class="node"><title>Node10</title>
<polygon fill="white" stroke="#bfbfbf" points="289,-0.5 289,-28.5 396,-28.5 396,-0.5 289,-0.5"/>
<text text-anchor="start" x="297" y="-17.3" font-family="Helvetica,sans-Serif" font-size="9.00">BacktraceException</text>
<text text-anchor="middle" x="342.5" y="-7.3" font-family="Helvetica,sans-Serif" font-size="9.00">/BacktraceException.h</text>
</g>
<!-- Node3&#45;&gt;Node10 -->
<g id="edge9" class="edge"><title>Node3&#45;&gt;Node10</title>
<path fill="none" stroke="midnightblue" d="M223.688,-65.4353C243.849,-56.962 276.158,-43.3828 301.998,-32.5224"/>
<polygon fill="midnightblue" stroke="midnightblue" points="303.683,-35.6108 311.546,-28.5096 300.971,-29.1576 303.683,-35.6108"/>
</g>
<!-- Node11&#45;&gt;Node5 -->
<g id="edge11" class="edge"><title>Node11&#45;&gt;Node5</title>
<path fill="none" stroke="midnightblue" d="M83.0562,-65.4353C83.617,-57.3035 84.5021,-44.4692 85.2346,-33.8485"/>
<polygon fill="midnightblue" stroke="midnightblue" points="88.7262,-34.0889 85.9226,-23.8718 81.7428,-33.6072 88.7262,-34.0889"/>
</g>
<!-- Node11&#45;&gt;Node9 -->
<g id="edge12" class="edge"><title>Node11&#45;&gt;Node9</title>
<path fill="none" stroke="midnightblue" d="M73.8792,-65.4353C64.363,-56.5331 48.8225,-41.9952 36.9572,-30.8954"/>
<polygon fill="midnightblue" stroke="midnightblue" points="39.1429,-28.1474 29.4491,-23.8718 34.3608,-33.2593 39.1429,-28.1474"/>
</g>
</g>
</svg>
