<?xml version="1.0" encoding="UTF-8" standalone="no"?>
<!DOCTYPE svg PUBLIC "-//W3C//DTD SVG 1.1//EN"
 "http://www.w3.org/Graphics/SVG/1.1/DTD/svg11.dtd">
<!-- Generated by graphviz version 2.38.0 (20140413.2041)
 -->
<!-- Title: Tracker.h Pages: 1 -->
<svg width="161pt" height="137pt"
 viewBox="0.00 0.00 160.50 137.00" xmlns="http://www.w3.org/2000/svg" xmlns:xlink="http://www.w3.org/1999/xlink">
<g id="graph0" class="graph" transform="scale(1 1) rotate(0) translate(4 133)">
<title>Tracker.h</title>
<polygon fill="white" stroke="none" points="-4,4 -4,-133 156.5,-133 156.5,4 -4,4"/>
<!-- Node1 -->
<g id="node1" class="node"><title>Node1</title>
<polygon fill="#bfbfbf" stroke="black" points="46,-110.5 46,-128.5 101,-128.5 101,-110.5 46,-110.5"/>
<text text-anchor="middle" x="73.5" y="-117.3" font-family="Helvetica,sans-Serif" font-size="9.00">Tracker.h</text>
</g>
<!-- Node2 -->
<g id="node2" class="node"><title>Node2</title>
<g id="a_node2"><a xlink:href="Tracker_8cpp.html" target="_top" xlink:title="The member definitions for Tracker. ">
<polygon fill="white" stroke="black" points="0,-55.5 0,-73.5 65,-73.5 65,-55.5 0,-55.5"/>
<text text-anchor="middle" x="32.5" y="-62.3" font-family="Helvetica,sans-Serif" font-size="9.00">Tracker.cpp</text>
</a>
</g>
</g>
<!-- Node1&#45;&gt;Node2 -->
<g id="edge1" class="edge"><title>Node1&#45;&gt;Node2</title>
<path fill="none" stroke="midnightblue" d="M60.9235,-102.243C53.5649,-92.7302 44.5965,-81.1369 38.727,-73.5496"/>
<polygon fill="midnightblue" stroke="midnightblue" points="58.2066,-104.451 67.0938,-110.219 63.7433,-100.168 58.2066,-104.451"/>
</g>
<!-- Node3 -->
<g id="node3" class="node"><title>Node3</title>
<g id="a_node3"><a xlink:href="LAPTrack_8h.html" target="_top" xlink:title="The class declaration and inline and templated functions for LAPTrack. ">
<polygon fill="white" stroke="black" points="83.5,-55.5 83.5,-73.5 147.5,-73.5 147.5,-55.5 83.5,-55.5"/>
<text text-anchor="middle" x="115.5" y="-62.3" font-family="Helvetica,sans-Serif" font-size="9.00">LAPTrack.h</text>
</a>
</g>
</g>
<!-- Node1&#45;&gt;Node3 -->
<g id="edge2" class="edge"><title>Node1&#45;&gt;Node3</title>
<path fill="none" stroke="midnightblue" d="M86.3832,-102.243C93.9213,-92.7302 103.108,-81.1369 109.121,-73.5496"/>
<polygon fill="midnightblue" stroke="midnightblue" points="83.5302,-100.207 80.0625,-110.219 89.0165,-104.555 83.5302,-100.207"/>
</g>
<!-- Node4 -->
<g id="node4" class="node"><title>Node4</title>
<g id="a_node4"><a xlink:href="LAPTrack_8cpp.html" target="_top" xlink:title="The member definitions for LAPTrack. ">
<polygon fill="white" stroke="black" points="78.5,-0.5 78.5,-18.5 152.5,-18.5 152.5,-0.5 78.5,-0.5"/>
<text text-anchor="middle" x="115.5" y="-7.3" font-family="Helvetica,sans-Serif" font-size="9.00">LAPTrack.cpp</text>
</a>
</g>
</g>
<!-- Node3&#45;&gt;Node4 -->
<g id="edge3" class="edge"><title>Node3&#45;&gt;Node4</title>
<path fill="none" stroke="midnightblue" d="M115.5,-45.1746C115.5,-36.0945 115.5,-25.5949 115.5,-18.5496"/>
<polygon fill="midnightblue" stroke="midnightblue" points="112,-45.2187 115.5,-55.2188 119,-45.2188 112,-45.2187"/>
</g>
</g>
</svg>
